<?xml version="1.0" encoding="UTF-8" standalone="no"?>
<!DOCTYPE svg PUBLIC "-//W3C//DTD SVG 1.1//EN"
 "http://www.w3.org/Graphics/SVG/1.1/DTD/svg11.dtd">
<!-- Generated by graphviz version 2.40.1 (20161225.0304)
 -->
<!-- Title: hierarchy Pages: 1 -->
<svg width="1406pt" height="998pt"
 viewBox="0.00 0.00 1405.68 997.60" xmlns="http://www.w3.org/2000/svg" xmlns:xlink="http://www.w3.org/1999/xlink">
<g id="graph0" class="graph" transform="scale(1 1) rotate(0) translate(4 993.6)">
<title>hierarchy</title>
<polygon fill="#ffffff" stroke="transparent" points="-4,4 -4,-993.6 1401.6835,-993.6 1401.6835,4 -4,4"/>
<!-- 1 -->
<g id="node1" class="node">
<title>1</title>
<polygon fill="#f2f2f2" stroke="#000000" points="359.0673,-609.7 359.0673,-885.7 550.0463,-885.7 550.0463,-609.7 359.0673,-609.7"/>
<text text-anchor="middle" x="454.5568" y="-869.1" font-family="Times,serif" font-size="14.00" fill="#000000">DSMath</text>
<polyline fill="none" stroke="#000000" points="359.0673,-860.9 550.0463,-860.9 "/>
<text text-anchor="start" x="367.0673" y="-844.3" font-family="Times,serif" font-size="14.00" fill="#000000"># WAD : uint</text>
<text text-anchor="start" x="367.0673" y="-827.5" font-family="Times,serif" font-size="14.00" fill="#000000"># RAY : uint</text>
<polyline fill="none" stroke="#000000" points="359.0673,-819.3 550.0463,-819.3 "/>
<text text-anchor="start" x="367.0673" y="-802.7" font-family="Times,serif" font-size="14.00" fill="#000000"># add(uint x, uint y) : (uint z)</text>
<text text-anchor="start" x="367.0673" y="-785.9" font-family="Times,serif" font-size="14.00" fill="#000000"># sub(uint x, uint y) : (uint z)</text>
<text text-anchor="start" x="367.0673" y="-769.1" font-family="Times,serif" font-size="14.00" fill="#000000"># mul(uint x, uint y) : (uint z)</text>
<text text-anchor="start" x="367.0673" y="-752.3" font-family="Times,serif" font-size="14.00" fill="#000000"># min(uint x, uint y) : (uint z)</text>
<text text-anchor="start" x="367.0673" y="-735.5" font-family="Times,serif" font-size="14.00" fill="#000000"># max(uint x, uint y) : (uint z)</text>
<text text-anchor="start" x="367.0673" y="-718.7" font-family="Times,serif" font-size="14.00" fill="#000000"># imin(int x, int y) : (int z)</text>
<text text-anchor="start" x="367.0673" y="-701.9" font-family="Times,serif" font-size="14.00" fill="#000000"># imax(int x, int y) : (int z)</text>
<text text-anchor="start" x="367.0673" y="-685.1" font-family="Times,serif" font-size="14.00" fill="#000000"># wmul(uint x, uint y) : (uint z)</text>
<text text-anchor="start" x="367.0673" y="-668.3" font-family="Times,serif" font-size="14.00" fill="#000000"># rmul(uint x, uint y) : (uint z)</text>
<text text-anchor="start" x="367.0673" y="-651.5" font-family="Times,serif" font-size="14.00" fill="#000000"># wdiv(uint x, uint y) : (uint z)</text>
<text text-anchor="start" x="367.0673" y="-634.7" font-family="Times,serif" font-size="14.00" fill="#000000"># rdiv(uint x, uint y) : (uint z)</text>
<text text-anchor="start" x="367.0673" y="-617.9" font-family="Times,serif" font-size="14.00" fill="#000000"># rpow(uint x, uint n) : (uint z)</text>
</g>
<!-- 9 -->
<g id="node9" class="node">
<title>9</title>
<polygon fill="#f2f2f2" stroke="#000000" points="262.0718,-363.9 262.0718,-572.7 633.0418,-572.7 633.0418,-363.9 262.0718,-363.9"/>
<text text-anchor="middle" x="447.5568" y="-556.1" font-family="Times,serif" font-size="14.00" fill="#000000">DSTokenBase</text>
<polyline fill="none" stroke="#000000" points="262.0718,-547.9 633.0418,-547.9 "/>
<text text-anchor="start" x="270.0718" y="-531.3" font-family="Times,serif" font-size="14.00" fill="#000000"># _supply : uint256</text>
<text text-anchor="start" x="270.0718" y="-514.5" font-family="Times,serif" font-size="14.00" fill="#000000"># _balances : mapping(address : uint256 )</text>
<text text-anchor="start" x="270.0718" y="-497.7" font-family="Times,serif" font-size="14.00" fill="#000000"># _approvals : mapping(address : mapping(address : uint256 ) )</text>
<polyline fill="none" stroke="#000000" points="262.0718,-489.5 633.0418,-489.5 "/>
<text text-anchor="start" x="270.0718" y="-472.9" font-family="Times,serif" font-size="14.00" fill="#000000">+ «constructor» DSTokenBase(uint supply)</text>
<text text-anchor="start" x="270.0718" y="-456.1" font-family="Times,serif" font-size="14.00" fill="#000000">+ totalSupply() : (uint)</text>
<text text-anchor="start" x="270.0718" y="-439.3" font-family="Times,serif" font-size="14.00" fill="#000000">+ balanceOf(address src) : (uint)</text>
<text text-anchor="start" x="270.0718" y="-422.5" font-family="Times,serif" font-size="14.00" fill="#000000">+ allowance(address src, address guy) : (uint)</text>
<text text-anchor="start" x="270.0718" y="-405.7" font-family="Times,serif" font-size="14.00" fill="#000000">+ transfer(address dst, uint wad) : (bool)</text>
<text text-anchor="start" x="270.0718" y="-388.9" font-family="Times,serif" font-size="14.00" fill="#000000">+ transferFrom(address src, address dst, uint wad) : (bool)</text>
<text text-anchor="start" x="270.0718" y="-372.1" font-family="Times,serif" font-size="14.00" fill="#000000">+ approve(address guy, uint wad) : (bool)</text>
</g>
<!-- 1&#45;&gt;9 -->
<g id="edge6" class="edge">
<title>1&#45;&gt;9</title>
<path fill="none" stroke="#000000" d="M450.8436,-599.491C450.6187,-590.5152 450.395,-581.5864 450.1763,-572.8536"/>
<polygon fill="none" stroke="#000000" points="447.3484,-599.7279 451.0978,-609.6371 454.3462,-599.5525 447.3484,-599.7279"/>
</g>
<!-- 2 -->
<g id="node2" class="node">
<title>2</title>
<polygon fill="#f2f2f2" stroke="#000000" points="752.2679,-922.7 752.2679,-989.1 1070.8457,-989.1 1070.8457,-922.7 752.2679,-922.7"/>
<text text-anchor="middle" x="911.5568" y="-972.5" font-family="Times,serif" font-size="14.00" fill="#000000">«abstract»</text>
<text text-anchor="middle" x="911.5568" y="-955.7" font-family="Times,serif" font-size="14.00" fill="#000000">DSAuthority</text>
<polyline fill="none" stroke="#000000" points="752.2679,-947.5 1070.8457,-947.5 "/>
<text text-anchor="start" x="760.2679" y="-930.9" font-family="Times,serif" font-size="14.00" fill="#000000">+ canCall(address src, address dst, bytes4 sig) : (bool)</text>
</g>
<!-- 4 -->
<g id="node4" class="node">
<title>4</title>
<polygon fill="#f2f2f2" stroke="#000000" points="581.3467,-668.5 581.3467,-826.9 859.7669,-826.9 859.7669,-668.5 581.3467,-668.5"/>
<text text-anchor="middle" x="720.5568" y="-810.3" font-family="Times,serif" font-size="14.00" fill="#000000">DSAuth</text>
<polyline fill="none" stroke="#000000" points="581.3467,-802.1 859.7669,-802.1 "/>
<text text-anchor="start" x="589.3467" y="-785.5" font-family="Times,serif" font-size="14.00" fill="#000000">+ authority : DSAuthority</text>
<text text-anchor="start" x="589.3467" y="-768.7" font-family="Times,serif" font-size="14.00" fill="#000000">+ owner : address</text>
<polyline fill="none" stroke="#000000" points="581.3467,-760.5 859.7669,-760.5 "/>
<text text-anchor="start" x="589.3467" y="-743.9" font-family="Times,serif" font-size="14.00" fill="#000000">+ «constructor» DSAuth()</text>
<text text-anchor="start" x="589.3467" y="-727.1" font-family="Times,serif" font-size="14.00" fill="#000000">+ setOwner(address owner_)</text>
<text text-anchor="start" x="589.3467" y="-710.3" font-family="Times,serif" font-size="14.00" fill="#000000">+ setAuthority(DSAuthority authority_)</text>
<text text-anchor="start" x="589.3467" y="-693.5" font-family="Times,serif" font-size="14.00" fill="#000000">«modifier» auth()</text>
<text text-anchor="start" x="589.3467" y="-676.7" font-family="Times,serif" font-size="14.00" fill="#000000"># isAuthorized(address src, bytes4 sig) : (bool)</text>
</g>
<!-- 2&#45;&gt;4 -->
<g id="edge9" class="edge">
<title>2&#45;&gt;4</title>
<path fill="none" stroke="#000000" d="M873.9727,-914.9314C850.9699,-889.8571 820.7637,-856.9307 793.2424,-826.9311"/>
<polygon fill="#000000" stroke="#000000" points="880.8693,-922.4491 870.7932,-918.1222 877.4893,-918.7646 874.1092,-915.0801 874.1092,-915.0801 874.1092,-915.0801 877.4893,-918.7646 877.4252,-912.0381 880.8693,-922.4491 880.8693,-922.4491"/>
</g>
<!-- 3 -->
<g id="node3" class="node">
<title>3</title>
<polygon fill="#f2f2f2" stroke="#000000" points="460.873,-922.7 460.873,-989.1 734.2406,-989.1 734.2406,-922.7 460.873,-922.7"/>
<text text-anchor="middle" x="597.5568" y="-972.5" font-family="Times,serif" font-size="14.00" fill="#000000">DSAuthEvents</text>
<polyline fill="none" stroke="#000000" points="460.873,-964.3 734.2406,-964.3 "/>
<text text-anchor="start" x="468.873" y="-947.7" font-family="Times,serif" font-size="14.00" fill="#000000">«event» LogSetAuthority(address authority)</text>
<text text-anchor="start" x="468.873" y="-930.9" font-family="Times,serif" font-size="14.00" fill="#000000">«event» LogSetOwner(address owner)</text>
</g>
<!-- 3&#45;&gt;4 -->
<g id="edge1" class="edge">
<title>3&#45;&gt;4</title>
<path fill="none" stroke="#000000" d="M622.5305,-913.6275C637.2438,-888.7226 656.3312,-856.4135 673.7488,-826.9311"/>
<polygon fill="none" stroke="#000000" points="619.392,-912.059 617.3189,-922.4491 625.4188,-915.6196 619.392,-912.059"/>
</g>
<!-- 6 -->
<g id="node6" class="node">
<title>6</title>
<polygon fill="#f2f2f2" stroke="#000000" points="650.5543,-414.3 650.5543,-522.3 804.5593,-522.3 804.5593,-414.3 650.5543,-414.3"/>
<text text-anchor="middle" x="727.5568" y="-505.7" font-family="Times,serif" font-size="14.00" fill="#000000">DSStop</text>
<polyline fill="none" stroke="#000000" points="650.5543,-497.5 804.5593,-497.5 "/>
<text text-anchor="start" x="658.5543" y="-480.9" font-family="Times,serif" font-size="14.00" fill="#000000">+ stopped : bool</text>
<polyline fill="none" stroke="#000000" points="650.5543,-472.7 804.5593,-472.7 "/>
<text text-anchor="start" x="658.5543" y="-456.1" font-family="Times,serif" font-size="14.00" fill="#000000">«modifier» stoppable()</text>
<text text-anchor="start" x="658.5543" y="-439.3" font-family="Times,serif" font-size="14.00" fill="#000000">+ stop()</text>
<text text-anchor="start" x="658.5543" y="-422.5" font-family="Times,serif" font-size="14.00" fill="#000000">+ start()</text>
</g>
<!-- 4&#45;&gt;6 -->
<g id="edge3" class="edge">
<title>4&#45;&gt;6</title>
<path fill="none" stroke="#000000" d="M722.8013,-658.1105C723.9191,-613.4973 725.2337,-561.0242 726.1971,-522.5698"/>
<polygon fill="none" stroke="#000000" points="719.2956,-658.298 722.544,-668.3825 726.2935,-658.4734 719.2956,-658.298"/>
</g>
<!-- 5 -->
<g id="node5" class="node">
<title>5</title>
<polygon fill="#f2f2f2" stroke="#000000" points="877.4301,-714.5 877.4301,-780.9 1397.6835,-780.9 1397.6835,-714.5 877.4301,-714.5"/>
<text text-anchor="middle" x="1137.5568" y="-764.3" font-family="Times,serif" font-size="14.00" fill="#000000">DSNote</text>
<polyline fill="none" stroke="#000000" points="877.4301,-756.1 1397.6835,-756.1 "/>
<text text-anchor="start" x="885.4301" y="-739.5" font-family="Times,serif" font-size="14.00" fill="#000000">«event» LogNote(bytes4 sig, address guy, bytes32 foo, bytes32 bar, uint wad, bytes fax)</text>
<text text-anchor="start" x="885.4301" y="-722.7" font-family="Times,serif" font-size="14.00" fill="#000000">«modifier» note()</text>
</g>
<!-- 5&#45;&gt;6 -->
<g id="edge2" class="edge">
<title>5&#45;&gt;6</title>
<path fill="none" stroke="#000000" d="M1079.9959,-708.4744C1008.0496,-659.4456 884.6547,-575.3564 804.6135,-520.8114"/>
<polygon fill="none" stroke="#000000" points="1078.2738,-711.5362 1088.5085,-714.2754 1082.2158,-705.7517 1078.2738,-711.5362"/>
</g>
<!-- 10 -->
<g id="node10" class="node">
<title>10</title>
<polygon fill="#f2f2f2" stroke="#000000" points="417,-.5 417,-326.9 758.1136,-326.9 758.1136,-.5 417,-.5"/>
<text text-anchor="middle" x="587.5568" y="-310.3" font-family="Times,serif" font-size="14.00" fill="#000000">DSToken</text>
<polyline fill="none" stroke="#000000" points="417,-302.1 758.1136,-302.1 "/>
<text text-anchor="start" x="425" y="-285.5" font-family="Times,serif" font-size="14.00" fill="#000000">+ symbol : bytes32</text>
<text text-anchor="start" x="425" y="-268.7" font-family="Times,serif" font-size="14.00" fill="#000000">+ decimals : uint256</text>
<text text-anchor="start" x="425" y="-251.9" font-family="Times,serif" font-size="14.00" fill="#000000">+ name : bytes32</text>
<polyline fill="none" stroke="#000000" points="417,-243.7 758.1136,-243.7 "/>
<text text-anchor="start" x="425" y="-227.1" font-family="Times,serif" font-size="14.00" fill="#000000">+ «constructor» DSToken(bytes32 symbol_)</text>
<text text-anchor="start" x="425" y="-210.3" font-family="Times,serif" font-size="14.00" fill="#000000">«event» Mint(address guy, uint wad)</text>
<text text-anchor="start" x="425" y="-193.5" font-family="Times,serif" font-size="14.00" fill="#000000">«event» Burn(address guy, uint wad)</text>
<text text-anchor="start" x="425" y="-176.7" font-family="Times,serif" font-size="14.00" fill="#000000">+ approve(address guy) : (bool)</text>
<text text-anchor="start" x="425" y="-159.9" font-family="Times,serif" font-size="14.00" fill="#000000">+ approve(address guy, uint wad) : (bool)</text>
<text text-anchor="start" x="425" y="-143.1" font-family="Times,serif" font-size="14.00" fill="#000000">+ transferFrom(address src, address dst, uint wad) : (bool)</text>
<text text-anchor="start" x="425" y="-126.3" font-family="Times,serif" font-size="14.00" fill="#000000">+ push(address dst, uint wad)</text>
<text text-anchor="start" x="425" y="-109.5" font-family="Times,serif" font-size="14.00" fill="#000000">+ pull(address src, uint wad)</text>
<text text-anchor="start" x="425" y="-92.7" font-family="Times,serif" font-size="14.00" fill="#000000">+ move(address src, address dst, uint wad)</text>
<text text-anchor="start" x="425" y="-75.9" font-family="Times,serif" font-size="14.00" fill="#000000">+ mint(uint wad)</text>
<text text-anchor="start" x="425" y="-59.1" font-family="Times,serif" font-size="14.00" fill="#000000">+ burn(uint wad)</text>
<text text-anchor="start" x="425" y="-42.3" font-family="Times,serif" font-size="14.00" fill="#000000">+ mint(address guy, uint wad)</text>
<text text-anchor="start" x="425" y="-25.5" font-family="Times,serif" font-size="14.00" fill="#000000">+ burn(address guy, uint wad)</text>
<text text-anchor="start" x="425" y="-8.7" font-family="Times,serif" font-size="14.00" fill="#000000">+ setName(bytes32 name_)</text>
</g>
<!-- 6&#45;&gt;10 -->
<g id="edge8" class="edge">
<title>6&#45;&gt;10</title>
<path fill="none" stroke="#000000" d="M698.432,-404.9328C687.8585,-381.9278 675.3696,-354.7556 662.6553,-327.0929"/>
<polygon fill="none" stroke="#000000" points="695.3325,-406.5701 702.6889,-414.1946 701.6928,-403.6467 695.3325,-406.5701"/>
</g>
<!-- 7 -->
<g id="node7" class="node">
<title>7</title>
<polygon fill="#f2f2f2" stroke="#000000" points="7.4494,-922.7 7.4494,-989.1 333.6642,-989.1 333.6642,-922.7 7.4494,-922.7"/>
<text text-anchor="middle" x="170.5568" y="-972.5" font-family="Times,serif" font-size="14.00" fill="#000000">ERC20Events</text>
<polyline fill="none" stroke="#000000" points="7.4494,-964.3 333.6642,-964.3 "/>
<text text-anchor="start" x="15.4494" y="-947.7" font-family="Times,serif" font-size="14.00" fill="#000000">«event» Approval(address src, address guy, uint wad)</text>
<text text-anchor="start" x="15.4494" y="-930.9" font-family="Times,serif" font-size="14.00" fill="#000000">«event» Transfer(address src, address dst, uint wad)</text>
</g>
<!-- 8 -->
<g id="node8" class="node">
<title>8</title>
<polygon fill="#f2f2f2" stroke="#000000" points="0,-672.5 0,-822.9 341.1136,-822.9 341.1136,-672.5 0,-672.5"/>
<text text-anchor="middle" x="170.5568" y="-806.3" font-family="Times,serif" font-size="14.00" fill="#000000">«abstract»</text>
<text text-anchor="middle" x="170.5568" y="-789.5" font-family="Times,serif" font-size="14.00" fill="#000000">ERC20</text>
<polyline fill="none" stroke="#000000" points="0,-781.3 341.1136,-781.3 "/>
<text text-anchor="start" x="8" y="-764.7" font-family="Times,serif" font-size="14.00" fill="#000000">+ totalSupply() : (uint)</text>
<text text-anchor="start" x="8" y="-747.9" font-family="Times,serif" font-size="14.00" fill="#000000">+ balanceOf(address guy) : (uint)</text>
<text text-anchor="start" x="8" y="-731.1" font-family="Times,serif" font-size="14.00" fill="#000000">+ allowance(address src, address guy) : (uint)</text>
<text text-anchor="start" x="8" y="-714.3" font-family="Times,serif" font-size="14.00" fill="#000000">+ approve(address guy, uint wad) : (bool)</text>
<text text-anchor="start" x="8" y="-697.5" font-family="Times,serif" font-size="14.00" fill="#000000">+ transfer(address dst, uint wad) : (bool)</text>
<text text-anchor="start" x="8" y="-680.7" font-family="Times,serif" font-size="14.00" fill="#000000">+ transferFrom(address src, address dst, uint wad) : (bool)</text>
</g>
<!-- 7&#45;&gt;8 -->
<g id="edge4" class="edge">
<title>7&#45;&gt;8</title>
<path fill="none" stroke="#000000" d="M170.5568,-912.2286C170.5568,-886.3845 170.5568,-852.9395 170.5568,-822.9592"/>
<polygon fill="none" stroke="#000000" points="167.0569,-912.449 170.5568,-922.4491 174.0569,-912.4491 167.0569,-912.449"/>
</g>
<!-- 8&#45;&gt;9 -->
<g id="edge5" class="edge">
<title>8&#45;&gt;9</title>
<path fill="none" stroke="#000000" d="M252.3613,-665.1867C281.0654,-636.2339 313.6964,-603.3202 343.951,-572.8035"/>
<polygon fill="none" stroke="#000000" points="249.7071,-662.8927 245.1521,-672.4584 254.6782,-667.821 249.7071,-662.8927"/>
</g>
<!-- 9&#45;&gt;10 -->
<g id="edge7" class="edge">
<title>9&#45;&gt;10</title>
<path fill="none" stroke="#000000" d="M499.9635,-354.278C504.0515,-345.3837 508.2251,-336.303 512.4235,-327.1685"/>
<polygon fill="none" stroke="#000000" points="496.7329,-352.926 495.7369,-363.474 503.0933,-355.8494 496.7329,-352.926"/>
</g>
</g>
</svg>
