<?xml version="1.0" encoding="UTF-8" standalone="no"?>
<!DOCTYPE svg PUBLIC "-//W3C//DTD SVG 1.1//EN"
 "http://www.w3.org/Graphics/SVG/1.1/DTD/svg11.dtd">
<!-- Generated by graphviz version 2.40.1 (20161225.0304)
 -->
<!-- Title: hierarchy Pages: 1 -->
<svg width="1588pt" height="822pt"
 viewBox="0.00 0.00 1588.46 821.60" xmlns="http://www.w3.org/2000/svg" xmlns:xlink="http://www.w3.org/1999/xlink">
<g id="graph0" class="graph" transform="scale(1 1) rotate(0) translate(4 817.6)">
<title>hierarchy</title>
<polygon fill="#ffffff" stroke="transparent" points="-4,4 -4,-817.6 1584.4558,-817.6 1584.4558,4 -4,4"/>
<!-- 1 -->
<g id="node1" class="node">
<title>1</title>
<polygon fill="#f2f2f2" stroke="#000000" points="178.5581,-299.3 178.5581,-592.1 602.4439,-592.1 602.4439,-299.3 178.5581,-299.3"/>
<text text-anchor="middle" x="390.501" y="-575.5" font-family="Times,serif" font-size="14.00" fill="#000000">ERC20</text>
<polyline fill="none" stroke="#000000" points="178.5581,-567.3 602.4439,-567.3 "/>
<text text-anchor="start" x="186.5581" y="-550.7" font-family="Times,serif" font-size="14.00" fill="#000000">&#45; _balances : mapping(address : uint256 )</text>
<text text-anchor="start" x="186.5581" y="-533.9" font-family="Times,serif" font-size="14.00" fill="#000000">&#45; _allowed : mapping(address : mapping(address : uint256 ) )</text>
<text text-anchor="start" x="186.5581" y="-517.1" font-family="Times,serif" font-size="14.00" fill="#000000">&#45; _totalSupply : uint256</text>
<polyline fill="none" stroke="#000000" points="178.5581,-508.9 602.4439,-508.9 "/>
<text text-anchor="start" x="186.5581" y="-492.3" font-family="Times,serif" font-size="14.00" fill="#000000">+ totalSupply() : (uint256)</text>
<text text-anchor="start" x="186.5581" y="-475.5" font-family="Times,serif" font-size="14.00" fill="#000000">+ balanceOf(address owner) : (uint256)</text>
<text text-anchor="start" x="186.5581" y="-458.7" font-family="Times,serif" font-size="14.00" fill="#000000">+ allowance(address owner, address spender) : (uint256)</text>
<text text-anchor="start" x="186.5581" y="-441.9" font-family="Times,serif" font-size="14.00" fill="#000000">+ transfer(address to, uint256 value) : (bool)</text>
<text text-anchor="start" x="186.5581" y="-425.1" font-family="Times,serif" font-size="14.00" fill="#000000">+ approve(address spender, uint256 value) : (bool)</text>
<text text-anchor="start" x="186.5581" y="-408.3" font-family="Times,serif" font-size="14.00" fill="#000000">+ transferFrom(address from, address to, uint256 value) : (bool)</text>
<text text-anchor="start" x="186.5581" y="-391.5" font-family="Times,serif" font-size="14.00" fill="#000000">+ increaseAllowance(address spender, uint256 addedValue) : (bool)</text>
<text text-anchor="start" x="186.5581" y="-374.7" font-family="Times,serif" font-size="14.00" fill="#000000">+ decreaseAllowance(address spender, uint256 subtractedValue) : (bool)</text>
<text text-anchor="start" x="186.5581" y="-357.9" font-family="Times,serif" font-size="14.00" fill="#000000"># _transfer(address from, address to, uint256 value)</text>
<text text-anchor="start" x="186.5581" y="-341.1" font-family="Times,serif" font-size="14.00" fill="#000000"># _mint(address account, uint256 value)</text>
<text text-anchor="start" x="186.5581" y="-324.3" font-family="Times,serif" font-size="14.00" fill="#000000"># _burn(address account, uint256 value)</text>
<text text-anchor="start" x="186.5581" y="-307.5" font-family="Times,serif" font-size="14.00" fill="#000000"># _burnFrom(address account, uint256 value)</text>
</g>
<!-- 2 -->
<g id="node2" class="node">
<title>2</title>
<polygon fill="#f2f2f2" stroke="#000000" points="0,-170.7 0,-237.1 249.002,-237.1 249.002,-170.7 0,-170.7"/>
<text text-anchor="middle" x="124.501" y="-220.5" font-family="Times,serif" font-size="14.00" fill="#000000">ERC20Burnable</text>
<polyline fill="none" stroke="#000000" points="0,-212.3 249.002,-212.3 "/>
<text text-anchor="start" x="8" y="-195.7" font-family="Times,serif" font-size="14.00" fill="#000000">+ burn(uint256 value)</text>
<text text-anchor="start" x="8" y="-178.9" font-family="Times,serif" font-size="14.00" fill="#000000">+ burnFrom(address from, uint256 value)</text>
</g>
<!-- 1&#45;&gt;2 -->
<g id="edge2" class="edge">
<title>1&#45;&gt;2</title>
<path fill="none" stroke="#000000" d="M221.8154,-292.361C199.0701,-271.685 177.8284,-252.3758 161.0305,-237.1061"/>
<polygon fill="none" stroke="#000000" points="219.4955,-294.9821 229.2494,-299.1187 224.204,-289.8023 219.4955,-294.9821"/>
</g>
<!-- 5 -->
<g id="node5" class="node">
<title>5</title>
<polygon fill="#f2f2f2" stroke="#000000" points="266.7707,-179.1 266.7707,-228.7 514.2313,-228.7 514.2313,-179.1 266.7707,-179.1"/>
<text text-anchor="middle" x="390.501" y="-212.1" font-family="Times,serif" font-size="14.00" fill="#000000">ERC20Mintable</text>
<polyline fill="none" stroke="#000000" points="266.7707,-203.9 514.2313,-203.9 "/>
<text text-anchor="start" x="274.7707" y="-187.3" font-family="Times,serif" font-size="14.00" fill="#000000">+ mint(address to, uint256 value) : (bool)</text>
</g>
<!-- 1&#45;&gt;5 -->
<g id="edge5" class="edge">
<title>1&#45;&gt;5</title>
<path fill="none" stroke="#000000" d="M390.501,-289.0249C390.501,-265.7246 390.501,-244.3725 390.501,-228.8811"/>
<polygon fill="none" stroke="#000000" points="387.0011,-289.1186 390.501,-299.1187 394.0011,-289.1187 387.0011,-289.1186"/>
</g>
<!-- 6 -->
<g id="node6" class="node">
<title>6</title>
<polygon fill="#f2f2f2" stroke="#000000" points="532.3193,-145.5 532.3193,-262.3 980.6827,-262.3 980.6827,-145.5 532.3193,-145.5"/>
<text text-anchor="middle" x="756.501" y="-245.7" font-family="Times,serif" font-size="14.00" fill="#000000">ERC20Pausable</text>
<polyline fill="none" stroke="#000000" points="532.3193,-237.5 980.6827,-237.5 "/>
<text text-anchor="start" x="540.3193" y="-220.9" font-family="Times,serif" font-size="14.00" fill="#000000">+ transfer(address to, uint256 value) : (bool)</text>
<text text-anchor="start" x="540.3193" y="-204.1" font-family="Times,serif" font-size="14.00" fill="#000000">+ transferFrom(address from, address to, uint256 value) : (bool)</text>
<text text-anchor="start" x="540.3193" y="-187.3" font-family="Times,serif" font-size="14.00" fill="#000000">+ approve(address spender, uint256 value) : (bool)</text>
<text text-anchor="start" x="540.3193" y="-170.5" font-family="Times,serif" font-size="14.00" fill="#000000">+ increaseAllowance(address spender, uint addedValue) : (bool success)</text>
<text text-anchor="start" x="540.3193" y="-153.7" font-family="Times,serif" font-size="14.00" fill="#000000">+ decreaseAllowance(address spender, uint subtractedValue) : (bool success)</text>
</g>
<!-- 1&#45;&gt;6 -->
<g id="edge7" class="edge">
<title>1&#45;&gt;6</title>
<path fill="none" stroke="#000000" d="M610.9419,-299.1688C611.1283,-299.0458 611.3147,-298.9229 611.501,-298.8 629.3325,-287.0387 648.4264,-274.5015 666.7109,-262.5236"/>
<polygon fill="none" stroke="#000000" points="608.9157,-296.3125 602.4972,-304.7418 612.7714,-302.1549 608.9157,-296.3125"/>
</g>
<!-- 3 -->
<g id="node3" class="node">
<title>3</title>
<polygon fill="#f2f2f2" stroke="#000000" points="269.9473,-.5 269.9473,-108.5 511.0547,-108.5 511.0547,-.5 269.9473,-.5"/>
<text text-anchor="middle" x="390.501" y="-91.9" font-family="Times,serif" font-size="14.00" fill="#000000">ERC20Capped</text>
<polyline fill="none" stroke="#000000" points="269.9473,-83.7 511.0547,-83.7 "/>
<text text-anchor="start" x="277.9473" y="-67.1" font-family="Times,serif" font-size="14.00" fill="#000000">&#45; _cap : uint256</text>
<polyline fill="none" stroke="#000000" points="269.9473,-58.9 511.0547,-58.9 "/>
<text text-anchor="start" x="277.9473" y="-42.3" font-family="Times,serif" font-size="14.00" fill="#000000">+ «constructor» null(uint256 cap)</text>
<text text-anchor="start" x="277.9473" y="-25.5" font-family="Times,serif" font-size="14.00" fill="#000000">+ cap() : (uint256)</text>
<text text-anchor="start" x="277.9473" y="-8.7" font-family="Times,serif" font-size="14.00" fill="#000000"># _mint(address account, uint256 value)</text>
</g>
<!-- 4 -->
<g id="node4" class="node">
<title>4</title>
<polygon fill="#f2f2f2" stroke="#000000" points="710.1739,-366.5 710.1739,-524.9 1096.8281,-524.9 1096.8281,-366.5 710.1739,-366.5"/>
<text text-anchor="middle" x="903.501" y="-508.3" font-family="Times,serif" font-size="14.00" fill="#000000">ERC20Detailed</text>
<polyline fill="none" stroke="#000000" points="710.1739,-500.1 1096.8281,-500.1 "/>
<text text-anchor="start" x="718.1739" y="-483.5" font-family="Times,serif" font-size="14.00" fill="#000000">&#45; _name : string</text>
<text text-anchor="start" x="718.1739" y="-466.7" font-family="Times,serif" font-size="14.00" fill="#000000">&#45; _symbol : string</text>
<text text-anchor="start" x="718.1739" y="-449.9" font-family="Times,serif" font-size="14.00" fill="#000000">&#45; _decimals : uint8</text>
<polyline fill="none" stroke="#000000" points="710.1739,-441.7 1096.8281,-441.7 "/>
<text text-anchor="start" x="718.1739" y="-425.1" font-family="Times,serif" font-size="14.00" fill="#000000">+ «constructor» null(string name, string symbol, uint8 decimals)</text>
<text text-anchor="start" x="718.1739" y="-408.3" font-family="Times,serif" font-size="14.00" fill="#000000">+ name() : (string)</text>
<text text-anchor="start" x="718.1739" y="-391.5" font-family="Times,serif" font-size="14.00" fill="#000000">+ symbol() : (string)</text>
<text text-anchor="start" x="718.1739" y="-374.7" font-family="Times,serif" font-size="14.00" fill="#000000">+ decimals() : (uint8)</text>
</g>
<!-- 5&#45;&gt;3 -->
<g id="edge3" class="edge">
<title>5&#45;&gt;3</title>
<path fill="none" stroke="#000000" d="M390.501,-168.6467C390.501,-150.7896 390.501,-128.7154 390.501,-108.7521"/>
<polygon fill="none" stroke="#000000" points="387.0011,-168.8938 390.501,-178.8938 394.0011,-168.8938 387.0011,-168.8938"/>
</g>
<!-- 7 -->
<g id="node7" class="node">
<title>7</title>
<polygon fill="#f2f2f2" stroke="#000000" points="705.7961,-629.1 705.7961,-813.1 1101.2059,-813.1 1101.2059,-629.1 705.7961,-629.1"/>
<text text-anchor="middle" x="903.501" y="-796.5" font-family="Times,serif" font-size="14.00" fill="#000000">«interface»</text>
<text text-anchor="middle" x="903.501" y="-779.7" font-family="Times,serif" font-size="14.00" fill="#000000">IERC20</text>
<polyline fill="none" stroke="#000000" points="705.7961,-771.5 1101.2059,-771.5 "/>
<text text-anchor="start" x="713.7961" y="-754.9" font-family="Times,serif" font-size="14.00" fill="#000000">+ transfer(address to, uint256 value) : (bool)</text>
<text text-anchor="start" x="713.7961" y="-738.1" font-family="Times,serif" font-size="14.00" fill="#000000">+ approve(address spender, uint256 value) : (bool)</text>
<text text-anchor="start" x="713.7961" y="-721.3" font-family="Times,serif" font-size="14.00" fill="#000000">+ transferFrom(address from, address to, uint256 value) : (bool)</text>
<text text-anchor="start" x="713.7961" y="-704.5" font-family="Times,serif" font-size="14.00" fill="#000000">+ totalSupply() : (uint256)</text>
<text text-anchor="start" x="713.7961" y="-687.7" font-family="Times,serif" font-size="14.00" fill="#000000">+ balanceOf(address who) : (uint256)</text>
<text text-anchor="start" x="713.7961" y="-670.9" font-family="Times,serif" font-size="14.00" fill="#000000">+ allowance(address owner, address spender) : (uint256)</text>
<text text-anchor="start" x="713.7961" y="-654.1" font-family="Times,serif" font-size="14.00" fill="#000000">«event» Transfer(address from, address to, uint256 value)</text>
<text text-anchor="start" x="713.7961" y="-637.3" font-family="Times,serif" font-size="14.00" fill="#000000">«event» Approval(address owner, address spender, uint256 value)</text>
</g>
<!-- 7&#45;&gt;1 -->
<g id="edge1" class="edge">
<title>7&#45;&gt;1</title>
<path fill="none" stroke="#000000" d="M696.3398,-635.2455C667.461,-621.7465 638.4655,-607.3519 611.501,-592.6 608.5707,-590.9969 605.6292,-589.3667 602.6793,-587.7124"/>
<polygon fill="none" stroke="#000000" points="695.1652,-638.559 705.7092,-639.5961 698.1134,-632.2101 695.1652,-638.559"/>
</g>
<!-- 7&#45;&gt;4 -->
<g id="edge4" class="edge">
<title>7&#45;&gt;4</title>
<path fill="none" stroke="#000000" d="M903.501,-618.6528C903.501,-587.7885 903.501,-554.3907 903.501,-525.2495"/>
<polygon fill="none" stroke="#000000" points="900.0011,-619.0129 903.501,-629.0129 907.0011,-619.0129 900.0011,-619.0129"/>
</g>
<!-- 9 -->
<g id="node9" class="node">
<title>9</title>
<polygon fill="#f2f2f2" stroke="#000000" points="1114.5462,-358.1 1114.5462,-533.3 1580.4558,-533.3 1580.4558,-358.1 1114.5462,-358.1"/>
<text text-anchor="middle" x="1347.501" y="-516.7" font-family="Times,serif" font-size="14.00" fill="#000000">TokenTimelock</text>
<polyline fill="none" stroke="#000000" points="1114.5462,-508.5 1580.4558,-508.5 "/>
<text text-anchor="start" x="1122.5462" y="-491.9" font-family="Times,serif" font-size="14.00" fill="#000000">&#45; _token : IERC20</text>
<text text-anchor="start" x="1122.5462" y="-475.1" font-family="Times,serif" font-size="14.00" fill="#000000">&#45; _beneficiary : address</text>
<text text-anchor="start" x="1122.5462" y="-458.3" font-family="Times,serif" font-size="14.00" fill="#000000">&#45; _releaseTime : uint256</text>
<polyline fill="none" stroke="#000000" points="1114.5462,-450.1 1580.4558,-450.1 "/>
<text text-anchor="start" x="1122.5462" y="-433.5" font-family="Times,serif" font-size="14.00" fill="#000000">+ «constructor» null(IERC20 token, address beneficiary, uint256 releaseTime)</text>
<text text-anchor="start" x="1122.5462" y="-416.7" font-family="Times,serif" font-size="14.00" fill="#000000">+ token() : (IERC20)</text>
<text text-anchor="start" x="1122.5462" y="-399.9" font-family="Times,serif" font-size="14.00" fill="#000000">+ beneficiary() : (address)</text>
<text text-anchor="start" x="1122.5462" y="-383.1" font-family="Times,serif" font-size="14.00" fill="#000000">+ releaseTime() : (uint256)</text>
<text text-anchor="start" x="1122.5462" y="-366.3" font-family="Times,serif" font-size="14.00" fill="#000000">+ release()</text>
</g>
<!-- 7&#45;&gt;9 -->
<g id="edge9" class="edge">
<title>7&#45;&gt;9</title>
<path fill="none" stroke="#000000" d="M1060.7484,-623.5641C1108.0748,-594.209 1159.7038,-562.185 1205.9474,-533.5015"/>
<polygon fill="#000000" stroke="#000000" points="1051.9639,-629.0129 1058.0899,-619.9177 1056.2129,-626.3773 1060.4619,-623.7418 1060.4619,-623.7418 1060.4619,-623.7418 1056.2129,-626.3773 1062.8339,-627.5659 1051.9639,-629.0129 1051.9639,-629.0129"/>
</g>
<!-- 8 -->
<g id="node8" class="node">
<title>8</title>
<polygon fill="#f2f2f2" stroke="#000000" points="1118.8757,-662.7 1118.8757,-779.5 1562.1263,-779.5 1562.1263,-662.7 1118.8757,-662.7"/>
<text text-anchor="middle" x="1340.501" y="-762.9" font-family="Times,serif" font-size="14.00" fill="#000000">SafeERC20</text>
<polyline fill="none" stroke="#000000" points="1118.8757,-754.7 1562.1263,-754.7 "/>
<text text-anchor="start" x="1126.8757" y="-738.1" font-family="Times,serif" font-size="14.00" fill="#000000"># safeTransfer(IERC20 token, address to, uint256 value)</text>
<text text-anchor="start" x="1126.8757" y="-721.3" font-family="Times,serif" font-size="14.00" fill="#000000"># safeTransferFrom(IERC20 token, address from, address to, uint256 value)</text>
<text text-anchor="start" x="1126.8757" y="-704.5" font-family="Times,serif" font-size="14.00" fill="#000000"># safeApprove(IERC20 token, address spender, uint256 value)</text>
<text text-anchor="start" x="1126.8757" y="-687.7" font-family="Times,serif" font-size="14.00" fill="#000000"># safeIncreaseAllowance(IERC20 token, address spender, uint256 value)</text>
<text text-anchor="start" x="1126.8757" y="-670.9" font-family="Times,serif" font-size="14.00" fill="#000000"># safeDecreaseAllowance(IERC20 token, address spender, uint256 value)</text>
</g>
<!-- undefined -->
<g id="node10" class="node">
<title>undefined</title>
<polygon fill="#f2f2f2" stroke="#000000" points="620.5108,-427.7 620.5108,-463.7 692.4912,-463.7 692.4912,-427.7 620.5108,-427.7"/>
<text text-anchor="middle" x="656.501" y="-441.5" font-family="Times,serif" font-size="14.00" fill="#000000">undefined</text>
</g>
<!-- undefined&#45;&gt;5 -->
<g id="edge6" class="edge">
<title>undefined&#45;&gt;5</title>
<path fill="none" stroke="#000000" d="M654.9146,-417.2956C651.652,-384.8227 641.7135,-331.8971 611.501,-298.8 583.0116,-267.5905 562.3795,-279.3572 523.501,-262.8 497.8274,-251.8663 469.5376,-239.3976 445.6735,-228.7561"/>
<polygon fill="none" stroke="#000000" points="651.445,-417.8007 655.7848,-427.4659 658.4195,-417.2039 651.445,-417.8007"/>
</g>
<!-- undefined&#45;&gt;6 -->
<g id="edge8" class="edge">
<title>undefined&#45;&gt;6</title>
<path fill="none" stroke="#000000" d="M663.0249,-417.7897C670.5138,-387.7276 684.046,-338.8232 701.501,-298.8 706.7536,-286.7561 713.1703,-274.3104 719.742,-262.5545"/>
<polygon fill="none" stroke="#000000" points="659.6035,-417.0469 660.6315,-427.5918 666.4037,-418.7074 659.6035,-417.0469"/>
</g>
</g>
</svg>
