<?xml version="1.0" encoding="UTF-8" standalone="no"?>
<!DOCTYPE svg PUBLIC "-//W3C//DTD SVG 1.1//EN"
 "http://www.w3.org/Graphics/SVG/1.1/DTD/svg11.dtd">
<!-- Generated by graphviz version 2.40.1 (20161225.0304)
 -->
<!-- Title: hierarchy Pages: 1 -->
<svg width="1706pt" height="601pt"
 viewBox="0.00 0.00 1706.50 600.60" xmlns="http://www.w3.org/2000/svg" xmlns:xlink="http://www.w3.org/1999/xlink">
<g id="graph0" class="graph" transform="scale(1 1) rotate(0) translate(4 596.6)">
<title>hierarchy</title>
<polygon fill="#ffffff" stroke="transparent" points="-4,4 -4,-596.6 1702.4956,-596.6 1702.4956,4 -4,4"/>
<!-- 1 -->
<g id="node1" class="node">
<title>1</title>
<polygon fill="#f2f2f2" stroke="#000000" points="852.1273,-492.1 852.1273,-592.1 1099.4311,-592.1 1099.4311,-492.1 852.1273,-492.1"/>
<text text-anchor="middle" x="975.7792" y="-575.5" font-family="Times,serif" font-size="14.00" fill="#000000">«library»</text>
<text text-anchor="middle" x="975.7792" y="-558.7" font-family="Times,serif" font-size="14.00" fill="#000000">Roles</text>
<polyline fill="none" stroke="#000000" points="852.1273,-550.5 1099.4311,-550.5 "/>
<text text-anchor="start" x="860.1273" y="-533.9" font-family="Times,serif" font-size="14.00" fill="#000000"># add(Role role, address account)</text>
<text text-anchor="start" x="860.1273" y="-517.1" font-family="Times,serif" font-size="14.00" fill="#000000"># remove(Role role, address account)</text>
<text text-anchor="start" x="860.1273" y="-500.3" font-family="Times,serif" font-size="14.00" fill="#000000"># has(Role role, address account) : (bool)</text>
</g>
<!-- 3 -->
<g id="node2" class="node">
<title>3</title>
<polygon fill="#f2f2f2" stroke="#000000" points="0,-246.3 0,-455.1 265.5584,-455.1 265.5584,-246.3 0,-246.3"/>
<text text-anchor="middle" x="132.7792" y="-438.5" font-family="Times,serif" font-size="14.00" fill="#000000">CapperRole</text>
<polyline fill="none" stroke="#000000" points="0,-430.3 265.5584,-430.3 "/>
<text text-anchor="start" x="8" y="-413.7" font-family="Times,serif" font-size="14.00" fill="#000000">&#45; _cappers : Roles.Role</text>
<polyline fill="none" stroke="#000000" points="0,-405.5 265.5584,-405.5 "/>
<text text-anchor="start" x="8" y="-388.9" font-family="Times,serif" font-size="14.00" fill="#000000">«event» CapperAdded(address account)</text>
<text text-anchor="start" x="8" y="-372.1" font-family="Times,serif" font-size="14.00" fill="#000000">«event» CapperRemoved(address account)</text>
<text text-anchor="start" x="8" y="-355.3" font-family="Times,serif" font-size="14.00" fill="#000000"># constructor()</text>
<text text-anchor="start" x="8" y="-338.5" font-family="Times,serif" font-size="14.00" fill="#000000">«modifier» onlyCapper()</text>
<text text-anchor="start" x="8" y="-321.7" font-family="Times,serif" font-size="14.00" fill="#000000">+ isCapper(address account) : (bool)</text>
<text text-anchor="start" x="8" y="-304.9" font-family="Times,serif" font-size="14.00" fill="#000000">+ addCapper(address account)</text>
<text text-anchor="start" x="8" y="-288.1" font-family="Times,serif" font-size="14.00" fill="#000000">+ renounceCapper()</text>
<text text-anchor="start" x="8" y="-271.3" font-family="Times,serif" font-size="14.00" fill="#000000"># _addCapper(address account)</text>
<text text-anchor="start" x="8" y="-254.5" font-family="Times,serif" font-size="14.00" fill="#000000"># _removeCapper(address account)</text>
</g>
<!-- 1&#45;&gt;3 -->
<g id="edge3" class="edge">
<title>1&#45;&gt;3</title>
<path fill="none" stroke="#000000" d="M841.8635,-533.7793C667.73,-521.5581 373.9938,-495.7568 273.7792,-455.6 271.0887,-454.5219 268.4036,-453.3793 265.7274,-452.1786"/>
<polygon fill="#000000" stroke="#000000" points="851.8672,-534.4757 841.5788,-538.2703 846.8793,-534.1284 841.8914,-533.7812 841.8914,-533.7812 841.8914,-533.7812 846.8793,-534.1284 842.2039,-529.292 851.8672,-534.4757 851.8672,-534.4757"/>
</g>
<!-- 4 -->
<g id="node3" class="node">
<title>4</title>
<polygon fill="#f2f2f2" stroke="#000000" points="283.1627,-246.3 283.1627,-455.1 546.3957,-455.1 546.3957,-246.3 283.1627,-246.3"/>
<text text-anchor="middle" x="414.7792" y="-438.5" font-family="Times,serif" font-size="14.00" fill="#000000">MinterRole</text>
<polyline fill="none" stroke="#000000" points="283.1627,-430.3 546.3957,-430.3 "/>
<text text-anchor="start" x="291.1627" y="-413.7" font-family="Times,serif" font-size="14.00" fill="#000000">&#45; _minters : Roles.Role</text>
<polyline fill="none" stroke="#000000" points="283.1627,-405.5 546.3957,-405.5 "/>
<text text-anchor="start" x="291.1627" y="-388.9" font-family="Times,serif" font-size="14.00" fill="#000000">«event» MinterAdded(address account)</text>
<text text-anchor="start" x="291.1627" y="-372.1" font-family="Times,serif" font-size="14.00" fill="#000000">«event» MinterRemoved(address account)</text>
<text text-anchor="start" x="291.1627" y="-355.3" font-family="Times,serif" font-size="14.00" fill="#000000"># constructor()</text>
<text text-anchor="start" x="291.1627" y="-338.5" font-family="Times,serif" font-size="14.00" fill="#000000">«modifier» onlyMinter()</text>
<text text-anchor="start" x="291.1627" y="-321.7" font-family="Times,serif" font-size="14.00" fill="#000000">+ isMinter(address account) : (bool)</text>
<text text-anchor="start" x="291.1627" y="-304.9" font-family="Times,serif" font-size="14.00" fill="#000000">+ addMinter(address account)</text>
<text text-anchor="start" x="291.1627" y="-288.1" font-family="Times,serif" font-size="14.00" fill="#000000">+ renounceMinter()</text>
<text text-anchor="start" x="291.1627" y="-271.3" font-family="Times,serif" font-size="14.00" fill="#000000"># _addMinter(address account)</text>
<text text-anchor="start" x="291.1627" y="-254.5" font-family="Times,serif" font-size="14.00" fill="#000000"># _removeMinter(address account)</text>
</g>
<!-- 1&#45;&gt;4 -->
<g id="edge4" class="edge">
<title>1&#45;&gt;4</title>
<path fill="none" stroke="#000000" d="M841.9987,-529.6133C757.1334,-518.0943 646.6125,-496.3132 555.7792,-455.6 552.7166,-454.2273 549.6569,-452.7789 546.6054,-451.2638"/>
<polygon fill="#000000" stroke="#000000" points="851.9556,-530.9338 841.4508,-534.08 846.999,-530.2764 842.0424,-529.619 842.0424,-529.619 842.0424,-529.619 846.999,-530.2764 842.6341,-525.1581 851.9556,-530.9338 851.9556,-530.9338"/>
</g>
<!-- 5 -->
<g id="node4" class="node">
<title>5</title>
<polygon fill="#f2f2f2" stroke="#000000" points="564.5547,-246.3 564.5547,-455.1 827.0037,-455.1 827.0037,-246.3 564.5547,-246.3"/>
<text text-anchor="middle" x="695.7792" y="-438.5" font-family="Times,serif" font-size="14.00" fill="#000000">PauserRole</text>
<polyline fill="none" stroke="#000000" points="564.5547,-430.3 827.0037,-430.3 "/>
<text text-anchor="start" x="572.5547" y="-413.7" font-family="Times,serif" font-size="14.00" fill="#000000">&#45; _pausers : Roles.Role</text>
<polyline fill="none" stroke="#000000" points="564.5547,-405.5 827.0037,-405.5 "/>
<text text-anchor="start" x="572.5547" y="-388.9" font-family="Times,serif" font-size="14.00" fill="#000000">«event» PauserAdded(address account)</text>
<text text-anchor="start" x="572.5547" y="-372.1" font-family="Times,serif" font-size="14.00" fill="#000000">«event» PauserRemoved(address account)</text>
<text text-anchor="start" x="572.5547" y="-355.3" font-family="Times,serif" font-size="14.00" fill="#000000"># constructor()</text>
<text text-anchor="start" x="572.5547" y="-338.5" font-family="Times,serif" font-size="14.00" fill="#000000">«modifier» onlyPauser()</text>
<text text-anchor="start" x="572.5547" y="-321.7" font-family="Times,serif" font-size="14.00" fill="#000000">+ isPauser(address account) : (bool)</text>
<text text-anchor="start" x="572.5547" y="-304.9" font-family="Times,serif" font-size="14.00" fill="#000000">+ addPauser(address account)</text>
<text text-anchor="start" x="572.5547" y="-288.1" font-family="Times,serif" font-size="14.00" fill="#000000">+ renouncePauser()</text>
<text text-anchor="start" x="572.5547" y="-271.3" font-family="Times,serif" font-size="14.00" fill="#000000"># _addPauser(address account)</text>
<text text-anchor="start" x="572.5547" y="-254.5" font-family="Times,serif" font-size="14.00" fill="#000000"># _removePauser(address account)</text>
</g>
<!-- 1&#45;&gt;5 -->
<g id="edge5" class="edge">
<title>1&#45;&gt;5</title>
<path fill="none" stroke="#000000" d="M883.245,-486.5525C867.2572,-476.4946 850.9182,-465.9182 835.7792,-455.6 832.8931,-453.6329 829.9837,-451.6309 827.0591,-449.601"/>
<polygon fill="#000000" stroke="#000000" points="892.0812,-492.0819 881.217,-490.5919 887.8427,-489.4295 883.6041,-486.7772 883.6041,-486.7772 883.6041,-486.7772 887.8427,-489.4295 885.9913,-482.9625 892.0812,-492.0819 892.0812,-492.0819"/>
</g>
<!-- 6 -->
<g id="node5" class="node">
<title>6</title>
<polygon fill="#f2f2f2" stroke="#000000" points="844.939,-246.3 844.939,-455.1 1106.6194,-455.1 1106.6194,-246.3 844.939,-246.3"/>
<text text-anchor="middle" x="975.7792" y="-438.5" font-family="Times,serif" font-size="14.00" fill="#000000">SignerRole</text>
<polyline fill="none" stroke="#000000" points="844.939,-430.3 1106.6194,-430.3 "/>
<text text-anchor="start" x="852.939" y="-413.7" font-family="Times,serif" font-size="14.00" fill="#000000">&#45; _signers : Roles.Role</text>
<polyline fill="none" stroke="#000000" points="844.939,-405.5 1106.6194,-405.5 "/>
<text text-anchor="start" x="852.939" y="-388.9" font-family="Times,serif" font-size="14.00" fill="#000000">«event» SignerAdded(address account)</text>
<text text-anchor="start" x="852.939" y="-372.1" font-family="Times,serif" font-size="14.00" fill="#000000">«event» SignerRemoved(address account)</text>
<text text-anchor="start" x="852.939" y="-355.3" font-family="Times,serif" font-size="14.00" fill="#000000"># constructor()</text>
<text text-anchor="start" x="852.939" y="-338.5" font-family="Times,serif" font-size="14.00" fill="#000000">«modifier» onlySigner()</text>
<text text-anchor="start" x="852.939" y="-321.7" font-family="Times,serif" font-size="14.00" fill="#000000">+ isSigner(address account) : (bool)</text>
<text text-anchor="start" x="852.939" y="-304.9" font-family="Times,serif" font-size="14.00" fill="#000000">+ addSigner(address account)</text>
<text text-anchor="start" x="852.939" y="-288.1" font-family="Times,serif" font-size="14.00" fill="#000000">+ renounceSigner()</text>
<text text-anchor="start" x="852.939" y="-271.3" font-family="Times,serif" font-size="14.00" fill="#000000"># _addSigner(address account)</text>
<text text-anchor="start" x="852.939" y="-254.5" font-family="Times,serif" font-size="14.00" fill="#000000"># _removeSigner(address account)</text>
</g>
<!-- 1&#45;&gt;6 -->
<g id="edge6" class="edge">
<title>1&#45;&gt;6</title>
<path fill="none" stroke="#000000" d="M975.7792,-481.66C975.7792,-473.143 975.7792,-464.1929 975.7792,-455.1376"/>
<polygon fill="#000000" stroke="#000000" points="975.7792,-491.8119 971.2793,-481.8119 975.7792,-486.8119 975.7793,-481.8119 975.7793,-481.8119 975.7793,-481.8119 975.7792,-486.8119 980.2793,-481.8119 975.7792,-491.8119 975.7792,-491.8119"/>
</g>
<!-- 7 -->
<g id="node6" class="node">
<title>7</title>
<polygon fill="#f2f2f2" stroke="#000000" points="1125.1059,-246.3 1125.1059,-455.1 1440.4525,-455.1 1440.4525,-246.3 1125.1059,-246.3"/>
<text text-anchor="middle" x="1282.7792" y="-438.5" font-family="Times,serif" font-size="14.00" fill="#000000">WhitelistAdminRole</text>
<polyline fill="none" stroke="#000000" points="1125.1059,-430.3 1440.4525,-430.3 "/>
<text text-anchor="start" x="1133.1059" y="-413.7" font-family="Times,serif" font-size="14.00" fill="#000000">&#45; _whitelistAdmins : Roles.Role</text>
<polyline fill="none" stroke="#000000" points="1125.1059,-405.5 1440.4525,-405.5 "/>
<text text-anchor="start" x="1133.1059" y="-388.9" font-family="Times,serif" font-size="14.00" fill="#000000">«event» WhitelistAdminAdded(address account)</text>
<text text-anchor="start" x="1133.1059" y="-372.1" font-family="Times,serif" font-size="14.00" fill="#000000">«event» WhitelistAdminRemoved(address account)</text>
<text text-anchor="start" x="1133.1059" y="-355.3" font-family="Times,serif" font-size="14.00" fill="#000000"># constructor()</text>
<text text-anchor="start" x="1133.1059" y="-338.5" font-family="Times,serif" font-size="14.00" fill="#000000">«modifier» onlyWhitelistAdmin()</text>
<text text-anchor="start" x="1133.1059" y="-321.7" font-family="Times,serif" font-size="14.00" fill="#000000">+ isWhitelistAdmin(address account) : (bool)</text>
<text text-anchor="start" x="1133.1059" y="-304.9" font-family="Times,serif" font-size="14.00" fill="#000000">+ addWhitelistAdmin(address account)</text>
<text text-anchor="start" x="1133.1059" y="-288.1" font-family="Times,serif" font-size="14.00" fill="#000000">+ renounceWhitelistAdmin()</text>
<text text-anchor="start" x="1133.1059" y="-271.3" font-family="Times,serif" font-size="14.00" fill="#000000"># _addWhitelistAdmin(address account)</text>
<text text-anchor="start" x="1133.1059" y="-254.5" font-family="Times,serif" font-size="14.00" fill="#000000"># _removeWhitelistAdmin(address account)</text>
</g>
<!-- 1&#45;&gt;7 -->
<g id="edge7" class="edge">
<title>1&#45;&gt;7</title>
<path fill="none" stroke="#000000" d="M1065.8962,-486.5565C1082.4985,-476.2851 1099.6721,-465.6346 1115.7792,-455.6 1118.8305,-453.6991 1121.9125,-451.7776 1125.0175,-449.8404"/>
<polygon fill="#000000" stroke="#000000" points="1057.275,-491.888 1063.4133,-482.801 1061.5276,-489.2581 1065.7801,-486.6283 1065.7801,-486.6283 1065.7801,-486.6283 1061.5276,-489.2581 1068.147,-490.4556 1057.275,-491.888 1057.275,-491.888"/>
</g>
<!-- 8 -->
<g id="node7" class="node">
<title>8</title>
<polygon fill="#f2f2f2" stroke="#000000" points="1230.9425,-.5 1230.9425,-209.3 1520.6159,-209.3 1520.6159,-.5 1230.9425,-.5"/>
<text text-anchor="middle" x="1375.7792" y="-192.7" font-family="Times,serif" font-size="14.00" fill="#000000">WhitelistedRole</text>
<polyline fill="none" stroke="#000000" points="1230.9425,-184.5 1520.6159,-184.5 "/>
<text text-anchor="start" x="1238.9425" y="-167.9" font-family="Times,serif" font-size="14.00" fill="#000000">&#45; _whitelisteds : Roles.Role</text>
<polyline fill="none" stroke="#000000" points="1230.9425,-159.7 1520.6159,-159.7 "/>
<text text-anchor="start" x="1238.9425" y="-143.1" font-family="Times,serif" font-size="14.00" fill="#000000">«event» WhitelistedAdded(address account)</text>
<text text-anchor="start" x="1238.9425" y="-126.3" font-family="Times,serif" font-size="14.00" fill="#000000">«event» WhitelistedRemoved(address account)</text>
<text text-anchor="start" x="1238.9425" y="-109.5" font-family="Times,serif" font-size="14.00" fill="#000000">«modifier» onlyWhitelisted()</text>
<text text-anchor="start" x="1238.9425" y="-92.7" font-family="Times,serif" font-size="14.00" fill="#000000">+ isWhitelisted(address account) : (bool)</text>
<text text-anchor="start" x="1238.9425" y="-75.9" font-family="Times,serif" font-size="14.00" fill="#000000">+ addWhitelisted(address account)</text>
<text text-anchor="start" x="1238.9425" y="-59.1" font-family="Times,serif" font-size="14.00" fill="#000000">+ removeWhitelisted(address account)</text>
<text text-anchor="start" x="1238.9425" y="-42.3" font-family="Times,serif" font-size="14.00" fill="#000000">+ renounceWhitelisted()</text>
<text text-anchor="start" x="1238.9425" y="-25.5" font-family="Times,serif" font-size="14.00" fill="#000000"># _addWhitelisted(address account)</text>
<text text-anchor="start" x="1238.9425" y="-8.7" font-family="Times,serif" font-size="14.00" fill="#000000"># _removeWhitelisted(address account)</text>
</g>
<!-- 1&#45;&gt;8 -->
<g id="edge8" class="edge">
<title>1&#45;&gt;8</title>
<path fill="none" stroke="#000000" d="M1109.5748,-536.2821C1234.2412,-527.7202 1407.134,-506.7318 1449.7792,-455.6 1506.7728,-387.2644 1477.0039,-285.8446 1439.6189,-209.6244"/>
<polygon fill="#000000" stroke="#000000" points="1099.5561,-536.9507 1109.2342,-531.7947 1104.545,-536.6177 1109.5339,-536.2847 1109.5339,-536.2847 1109.5339,-536.2847 1104.545,-536.6177 1109.8336,-540.7747 1099.5561,-536.9507 1099.5561,-536.9507"/>
</g>
<!-- 2 -->
<g id="node8" class="node">
<title>2</title>
<polygon fill="#cfcfcf" stroke="#000000" points="1497.0628,-317.5 1497.0628,-383.9 1698.4956,-383.9 1698.4956,-317.5 1497.0628,-317.5"/>
<text text-anchor="middle" x="1597.7792" y="-367.3" font-family="Times,serif" font-size="14.00" fill="#000000">«struct»</text>
<text text-anchor="middle" x="1597.7792" y="-350.5" font-family="Times,serif" font-size="14.00" fill="#000000">Role</text>
<polyline fill="none" stroke="#000000" points="1497.0628,-342.3 1698.4956,-342.3 "/>
<text text-anchor="start" x="1505.0628" y="-325.7" font-family="Times,serif" font-size="14.00" fill="#000000">bearer : mapping(address : bool )</text>
</g>
<!-- 1&#45;&gt;2 -->
<g id="edge2" class="edge">
<title>1&#45;&gt;2</title>
<path fill="none" stroke="#000000" d="M1111.8138,-527.6349C1239.1431,-512.5318 1419.0402,-486.7236 1482.7792,-455.6 1517.5044,-438.6437 1549.3181,-407.8992 1570.6379,-384.0612"/>
<polygon fill="#000000" stroke="#000000" points="1111.5794,-527.6623 1106.0872,-532.3353 1099.6614,-529.0629 1105.1535,-524.3899 1111.5794,-527.6623"/>
</g>
<!-- 7&#45;&gt;8 -->
<g id="edge1" class="edge">
<title>7&#45;&gt;8</title>
<path fill="none" stroke="#000000" d="M1325.9257,-236.6633C1329.3643,-227.575 1332.8275,-218.4218 1336.2395,-209.4038"/>
<polygon fill="none" stroke="#000000" points="1322.6197,-235.5107 1322.3544,-246.1023 1329.1668,-237.9879 1322.6197,-235.5107"/>
</g>
</g>
</svg>
