<?xml version="1.0" encoding="UTF-8" standalone="no"?>
<!DOCTYPE svg PUBLIC "-//W3C//DTD SVG 1.1//EN"
 "http://www.w3.org/Graphics/SVG/1.1/DTD/svg11.dtd">
<!-- Generated by graphviz version 2.40.1 (20161225.0304)
 -->
<!-- Title: UmlClassDiagram Pages: 1 -->
<svg width="996pt" height="1352pt"
 viewBox="0.00 0.00 995.96 1352.20" xmlns="http://www.w3.org/2000/svg" xmlns:xlink="http://www.w3.org/1999/xlink">
<g id="graph0" class="graph" transform="scale(1 1) rotate(0) translate(4 1348.2)">
<title>UmlClassDiagram</title>
<polygon fill="#ffffff" stroke="transparent" points="-4,4 -4,-1348.2 991.9604,-1348.2 991.9604,4 -4,4"/>
<!-- 1 -->
<g id="node1" class="node">
<title>1</title>
<polygon fill="#f2f2f2" stroke="#000000" points="403.2532,-1176.9 403.2532,-1335.3 635.0856,-1335.3 635.0856,-1176.9 403.2532,-1176.9"/>
<text text-anchor="middle" x="519.1694" y="-1318.7" font-family="Times,serif" font-size="14.00" fill="#000000">&lt;&lt;Library&gt;&gt;</text>
<text text-anchor="middle" x="519.1694" y="-1301.9" font-family="Times,serif" font-size="14.00" fill="#000000">SafeMath</text>
<polyline fill="none" stroke="#000000" points="403.2532,-1293.7 635.0856,-1293.7 "/>
<text text-anchor="middle" x="519.1694" y="-1277.1" font-family="Times,serif" font-size="14.00" fill="#000000"> </text>
<polyline fill="none" stroke="#000000" points="403.2532,-1268.9 635.0856,-1268.9 "/>
<text text-anchor="start" x="411.2532" y="-1252.3" font-family="Times,serif" font-size="14.00" fill="#000000">Internal:</text>
<text text-anchor="start" x="411.2532" y="-1235.5" font-family="Times,serif" font-size="14.00" fill="#000000"> &#160;&#160;&#160;mul(a: uint256, b: uint256): uint256</text>
<text text-anchor="start" x="411.2532" y="-1218.7" font-family="Times,serif" font-size="14.00" fill="#000000"> &#160;&#160;&#160;div(a: uint256, b: uint256): uint256</text>
<text text-anchor="start" x="411.2532" y="-1201.9" font-family="Times,serif" font-size="14.00" fill="#000000"> &#160;&#160;&#160;sub(a: uint256, b: uint256): uint256</text>
<text text-anchor="start" x="411.2532" y="-1185.1" font-family="Times,serif" font-size="14.00" fill="#000000"> &#160;&#160;&#160;add(a: uint256, b: uint256): uint256</text>
</g>
<!-- 2 -->
<g id="node2" class="node">
<title>2</title>
<polygon fill="#f2f2f2" stroke="#000000" points="653.0343,-1185.3 653.0343,-1326.9 907.3045,-1326.9 907.3045,-1185.3 653.0343,-1185.3"/>
<text text-anchor="middle" x="780.1694" y="-1310.3" font-family="Times,serif" font-size="14.00" fill="#000000">Ownable</text>
<polyline fill="none" stroke="#000000" points="653.0343,-1302.1 907.3045,-1302.1 "/>
<text text-anchor="start" x="661.0343" y="-1285.5" font-family="Times,serif" font-size="14.00" fill="#000000">Public:</text>
<text text-anchor="start" x="661.0343" y="-1268.7" font-family="Times,serif" font-size="14.00" fill="#000000"> &#160;&#160;owner: address</text>
<polyline fill="none" stroke="#000000" points="653.0343,-1260.5 907.3045,-1260.5 "/>
<text text-anchor="start" x="661.0343" y="-1243.9" font-family="Times,serif" font-size="14.00" fill="#000000">Public:</text>
<text text-anchor="start" x="661.0343" y="-1227.1" font-family="Times,serif" font-size="14.00" fill="#000000"> &#160;&#160;&#160;&lt;&lt;modifier&gt;&gt; onlyOwner()</text>
<text text-anchor="start" x="661.0343" y="-1210.3" font-family="Times,serif" font-size="14.00" fill="#000000"> &#160;&#160;&#160;constructor()</text>
<text text-anchor="start" x="661.0343" y="-1193.5" font-family="Times,serif" font-size="14.00" fill="#000000"> &#160;&#160;&#160;transferOwnership(newOwner: address)</text>
</g>
<!-- 3 -->
<g id="node3" class="node">
<title>3</title>
<polygon fill="#f2f2f2" stroke="#000000" points="22.939,-1168.5 22.939,-1343.7 385.3998,-1343.7 385.3998,-1168.5 22.939,-1168.5"/>
<text text-anchor="middle" x="204.1694" y="-1327.1" font-family="Times,serif" font-size="14.00" fill="#000000">&lt;&lt;Abstract&gt;&gt;</text>
<text text-anchor="middle" x="204.1694" y="-1310.3" font-family="Times,serif" font-size="14.00" fill="#000000">ERC20Basic</text>
<polyline fill="none" stroke="#000000" points="22.939,-1302.1 385.3998,-1302.1 "/>
<text text-anchor="start" x="30.939" y="-1285.5" font-family="Times,serif" font-size="14.00" fill="#000000">Public:</text>
<text text-anchor="start" x="30.939" y="-1268.7" font-family="Times,serif" font-size="14.00" fill="#000000"> &#160;&#160;_totalSupply: uint</text>
<polyline fill="none" stroke="#000000" points="22.939,-1260.5 385.3998,-1260.5 "/>
<text text-anchor="start" x="30.939" y="-1243.9" font-family="Times,serif" font-size="14.00" fill="#000000">Public:</text>
<text text-anchor="start" x="30.939" y="-1227.1" font-family="Times,serif" font-size="14.00" fill="#000000"> &#160;&#160;&#160;&lt;&lt;abstract&gt;&gt; totalSupply(): uint</text>
<text text-anchor="start" x="30.939" y="-1210.3" font-family="Times,serif" font-size="14.00" fill="#000000"> &#160;&#160;&#160;&lt;&lt;abstract&gt;&gt; balanceOf(who: address): uint</text>
<text text-anchor="start" x="30.939" y="-1193.5" font-family="Times,serif" font-size="14.00" fill="#000000"> &#160;&#160;&#160;&lt;&lt;abstract&gt;&gt; transfer(to: address, value: uint)</text>
<text text-anchor="start" x="30.939" y="-1176.7" font-family="Times,serif" font-size="14.00" fill="#000000"> &#160;&#160;&#160;&lt;&lt;event&gt;&gt; Transfer(from: address, to: address, value: uint)</text>
</g>
<!-- 4 -->
<g id="node4" class="node">
<title>4</title>
<polygon fill="#f2f2f2" stroke="#000000" points="0,-964.7 0,-1123.1 408.3388,-1123.1 408.3388,-964.7 0,-964.7"/>
<text text-anchor="middle" x="204.1694" y="-1106.5" font-family="Times,serif" font-size="14.00" fill="#000000">&lt;&lt;Abstract&gt;&gt;</text>
<text text-anchor="middle" x="204.1694" y="-1089.7" font-family="Times,serif" font-size="14.00" fill="#000000">ERC20</text>
<polyline fill="none" stroke="#000000" points="0,-1081.5 408.3388,-1081.5 "/>
<text text-anchor="middle" x="204.1694" y="-1064.9" font-family="Times,serif" font-size="14.00" fill="#000000"> </text>
<polyline fill="none" stroke="#000000" points="0,-1056.7 408.3388,-1056.7 "/>
<text text-anchor="start" x="8" y="-1040.1" font-family="Times,serif" font-size="14.00" fill="#000000">Public:</text>
<text text-anchor="start" x="8" y="-1023.3" font-family="Times,serif" font-size="14.00" fill="#000000"> &#160;&#160;&#160;&lt;&lt;abstract&gt;&gt; allowance(owner: address, spender: address): uint</text>
<text text-anchor="start" x="8" y="-1006.5" font-family="Times,serif" font-size="14.00" fill="#000000"> &#160;&#160;&#160;&lt;&lt;abstract&gt;&gt; transferFrom(from: address, to: address, value: uint)</text>
<text text-anchor="start" x="8" y="-989.7" font-family="Times,serif" font-size="14.00" fill="#000000"> &#160;&#160;&#160;&lt;&lt;abstract&gt;&gt; approve(spender: address, value: uint)</text>
<text text-anchor="start" x="8" y="-972.9" font-family="Times,serif" font-size="14.00" fill="#000000"> &#160;&#160;&#160;&lt;&lt;event&gt;&gt; Approval(owner: address, spender: address, value: uint)</text>
</g>
<!-- 4&#45;&gt;3 -->
<g id="edge1" class="edge">
<title>4&#45;&gt;3</title>
<path fill="none" stroke="#000000" d="M204.1694,-1123.2172C204.1694,-1128.1605 204.1694,-1133.1868 204.1694,-1138.2492"/>
<polygon fill="none" stroke="#000000" points="193.6695,-1138.332 204.1694,-1168.3321 214.6695,-1138.3321 193.6695,-1138.332"/>
</g>
<!-- 5 -->
<g id="node5" class="node">
<title>5</title>
<polygon fill="#f2f2f2" stroke="#000000" points="439.7587,-956.3 439.7587,-1131.5 716.5801,-1131.5 716.5801,-956.3 439.7587,-956.3"/>
<text text-anchor="middle" x="578.1694" y="-1114.9" font-family="Times,serif" font-size="14.00" fill="#000000">BasicToken</text>
<polyline fill="none" stroke="#000000" points="439.7587,-1106.7 716.5801,-1106.7 "/>
<text text-anchor="start" x="447.7587" y="-1090.1" font-family="Times,serif" font-size="14.00" fill="#000000">Public:</text>
<text text-anchor="start" x="447.7587" y="-1073.3" font-family="Times,serif" font-size="14.00" fill="#000000"> &#160;&#160;balances: mapping(address=&gt;uint)</text>
<text text-anchor="start" x="447.7587" y="-1056.5" font-family="Times,serif" font-size="14.00" fill="#000000"> &#160;&#160;basisPointsRate: uint</text>
<text text-anchor="start" x="447.7587" y="-1039.7" font-family="Times,serif" font-size="14.00" fill="#000000"> &#160;&#160;maximumFee: uint</text>
<polyline fill="none" stroke="#000000" points="439.7587,-1031.5 716.5801,-1031.5 "/>
<text text-anchor="start" x="447.7587" y="-1014.9" font-family="Times,serif" font-size="14.00" fill="#000000">Public:</text>
<text text-anchor="start" x="447.7587" y="-998.1" font-family="Times,serif" font-size="14.00" fill="#000000"> &#160;&#160;&#160;&lt;&lt;modifier&gt;&gt; onlyPayloadSize(size: uint)</text>
<text text-anchor="start" x="447.7587" y="-981.3" font-family="Times,serif" font-size="14.00" fill="#000000"> &#160;&#160;&#160;transfer(_to: address, _value: uint)</text>
<text text-anchor="start" x="447.7587" y="-964.5" font-family="Times,serif" font-size="14.00" fill="#000000"> &#160;&#160;&#160;balanceOf(_owner: address): (balance: uint)</text>
</g>
<!-- 5&#45;&gt;1 -->
<g id="edge4" class="edge">
<title>5&#45;&gt;1</title>
<path fill="none" stroke="#000000" stroke-dasharray="5,2" d="M553.746,-1131.7416C550.5015,-1143.4107 547.1725,-1155.3836 543.9225,-1167.0726"/>
<polygon fill="#000000" stroke="#000000" points="540.5215,-1166.2395 541.2147,-1176.8117 547.2656,-1168.1147 540.5215,-1166.2395"/>
</g>
<!-- 5&#45;&gt;2 -->
<g id="edge2" class="edge">
<title>5&#45;&gt;2</title>
<path fill="none" stroke="#000000" d="M661.7887,-1131.7416C671.7097,-1142.1636 681.8615,-1152.828 691.8453,-1163.316"/>
<polygon fill="none" stroke="#000000" points="684.3292,-1170.6491 712.6189,-1185.1385 699.5395,-1156.1699 684.3292,-1170.6491"/>
</g>
<!-- 5&#45;&gt;3 -->
<g id="edge3" class="edge">
<title>5&#45;&gt;3</title>
<path fill="none" stroke="#000000" d="M439.7027,-1122.4632C421.8526,-1132.591 403.3687,-1143.0783 384.9651,-1153.5202"/>
<polygon fill="none" stroke="#000000" points="379.5219,-1144.5361 358.6108,-1168.4731 389.8851,-1162.801 379.5219,-1144.5361"/>
</g>
<!-- 6 -->
<g id="node6" class="node">
<title>6</title>
<polygon fill="#f2f2f2" stroke="#000000" points="5.6854,-718.9 5.6854,-877.3 402.6534,-877.3 402.6534,-718.9 5.6854,-718.9"/>
<text text-anchor="middle" x="204.1694" y="-860.7" font-family="Times,serif" font-size="14.00" fill="#000000">StandardToken</text>
<polyline fill="none" stroke="#000000" points="5.6854,-852.5 402.6534,-852.5 "/>
<text text-anchor="start" x="13.6854" y="-835.9" font-family="Times,serif" font-size="14.00" fill="#000000">Public:</text>
<text text-anchor="start" x="13.6854" y="-819.1" font-family="Times,serif" font-size="14.00" fill="#000000"> &#160;&#160;allowed: mapping(address=&gt;mapping(address=&gt;uint))</text>
<text text-anchor="start" x="13.6854" y="-802.3" font-family="Times,serif" font-size="14.00" fill="#000000"> &#160;&#160;MAX_UINT: uint</text>
<polyline fill="none" stroke="#000000" points="5.6854,-794.1 402.6534,-794.1 "/>
<text text-anchor="start" x="13.6854" y="-777.5" font-family="Times,serif" font-size="14.00" fill="#000000">Public:</text>
<text text-anchor="start" x="13.6854" y="-760.7" font-family="Times,serif" font-size="14.00" fill="#000000"> &#160;&#160;&#160;transferFrom(_from: address, _to: address, _value: uint)</text>
<text text-anchor="start" x="13.6854" y="-743.9" font-family="Times,serif" font-size="14.00" fill="#000000"> &#160;&#160;&#160;approve(_spender: address, _value: uint)</text>
<text text-anchor="start" x="13.6854" y="-727.1" font-family="Times,serif" font-size="14.00" fill="#000000"> &#160;&#160;&#160;allowance(_owner: address, _spender: address): (remaining: uint)</text>
</g>
<!-- 6&#45;&gt;4 -->
<g id="edge6" class="edge">
<title>6&#45;&gt;4</title>
<path fill="none" stroke="#000000" d="M204.1694,-877.5648C204.1694,-895.5731 204.1694,-915.0092 204.1694,-934.0248"/>
<polygon fill="none" stroke="#000000" points="193.6695,-934.2881 204.1694,-964.2881 214.6695,-934.2881 193.6695,-934.2881"/>
</g>
<!-- 6&#45;&gt;5 -->
<g id="edge5" class="edge">
<title>6&#45;&gt;5</title>
<path fill="none" stroke="#000000" d="M324.8219,-877.3952C354.9741,-897.2117 387.7704,-918.7661 419.4574,-939.5914"/>
<polygon fill="none" stroke="#000000" points="413.7231,-948.3874 444.5603,-956.0895 425.2568,-930.8382 413.7231,-948.3874"/>
</g>
<!-- 7 -->
<g id="node7" class="node">
<title>7</title>
<polygon fill="#f2f2f2" stroke="#000000" points="774.3784,-447.9 774.3784,-639.9 987.9604,-639.9 987.9604,-447.9 774.3784,-447.9"/>
<text text-anchor="middle" x="881.1694" y="-623.3" font-family="Times,serif" font-size="14.00" fill="#000000">Pausable</text>
<polyline fill="none" stroke="#000000" points="774.3784,-615.1 987.9604,-615.1 "/>
<text text-anchor="start" x="782.3784" y="-598.5" font-family="Times,serif" font-size="14.00" fill="#000000">Public:</text>
<text text-anchor="start" x="782.3784" y="-581.7" font-family="Times,serif" font-size="14.00" fill="#000000"> &#160;&#160;paused: bool</text>
<polyline fill="none" stroke="#000000" points="774.3784,-573.5 987.9604,-573.5 "/>
<text text-anchor="start" x="782.3784" y="-556.9" font-family="Times,serif" font-size="14.00" fill="#000000">Public:</text>
<text text-anchor="start" x="782.3784" y="-540.1" font-family="Times,serif" font-size="14.00" fill="#000000"> &#160;&#160;&#160;&lt;&lt;event&gt;&gt; Pause()</text>
<text text-anchor="start" x="782.3784" y="-523.3" font-family="Times,serif" font-size="14.00" fill="#000000"> &#160;&#160;&#160;&lt;&lt;event&gt;&gt; Unpause()</text>
<text text-anchor="start" x="782.3784" y="-506.5" font-family="Times,serif" font-size="14.00" fill="#000000"> &#160;&#160;&#160;&lt;&lt;modifier&gt;&gt; whenNotPaused()</text>
<text text-anchor="start" x="782.3784" y="-489.7" font-family="Times,serif" font-size="14.00" fill="#000000"> &#160;&#160;&#160;&lt;&lt;modifier&gt;&gt; whenPaused()</text>
<text text-anchor="start" x="782.3784" y="-472.9" font-family="Times,serif" font-size="14.00" fill="#000000"> &#160;&#160;&#160;pause()</text>
<text text-anchor="start" x="782.3784" y="-456.1" font-family="Times,serif" font-size="14.00" fill="#000000"> &#160;&#160;&#160;unpause()</text>
</g>
<!-- 7&#45;&gt;2 -->
<g id="edge7" class="edge">
<title>7&#45;&gt;2</title>
<path fill="none" stroke="#000000" d="M890.9074,-640.0809C891.8414,-652.2945 892.6376,-664.6322 893.1694,-676.4 898.053,-784.4675 910.626,-813.04 893.1694,-919.8 879.7363,-1001.9531 848.992,-1091.0952 822.9588,-1156.9495"/>
<polygon fill="none" stroke="#000000" points="813.1246,-1153.2602 811.5956,-1185.0078 832.589,-1161.143 813.1246,-1153.2602"/>
</g>
<!-- 8 -->
<g id="node8" class="node">
<title>8</title>
<polygon fill="#f2f2f2" stroke="#000000" points="420.5873,-676.9 420.5873,-919.3 883.7515,-919.3 883.7515,-676.9 420.5873,-676.9"/>
<text text-anchor="middle" x="652.1694" y="-902.7" font-family="Times,serif" font-size="14.00" fill="#000000">BlackList</text>
<polyline fill="none" stroke="#000000" points="420.5873,-894.5 883.7515,-894.5 "/>
<text text-anchor="start" x="428.5873" y="-877.9" font-family="Times,serif" font-size="14.00" fill="#000000">Public:</text>
<text text-anchor="start" x="428.5873" y="-861.1" font-family="Times,serif" font-size="14.00" fill="#000000"> &#160;&#160;isBlackListed: mapping(address=&gt;bool)</text>
<polyline fill="none" stroke="#000000" points="420.5873,-852.9 883.7515,-852.9 "/>
<text text-anchor="start" x="428.5873" y="-836.3" font-family="Times,serif" font-size="14.00" fill="#000000">External:</text>
<text text-anchor="start" x="428.5873" y="-819.5" font-family="Times,serif" font-size="14.00" fill="#000000"> &#160;&#160;&#160;getBlackListStatus(_maker: address): bool</text>
<text text-anchor="start" x="428.5873" y="-802.7" font-family="Times,serif" font-size="14.00" fill="#000000"> &#160;&#160;&#160;getOwner(): address</text>
<text text-anchor="start" x="428.5873" y="-785.9" font-family="Times,serif" font-size="14.00" fill="#000000">Public:</text>
<text text-anchor="start" x="428.5873" y="-769.1" font-family="Times,serif" font-size="14.00" fill="#000000"> &#160;&#160;&#160;&lt;&lt;event&gt;&gt; DestroyedBlackFunds(_blackListedUser: address, _balance: uint)</text>
<text text-anchor="start" x="428.5873" y="-752.3" font-family="Times,serif" font-size="14.00" fill="#000000"> &#160;&#160;&#160;&lt;&lt;event&gt;&gt; AddedBlackList(_user: address)</text>
<text text-anchor="start" x="428.5873" y="-735.5" font-family="Times,serif" font-size="14.00" fill="#000000"> &#160;&#160;&#160;&lt;&lt;event&gt;&gt; RemovedBlackList(_user: address)</text>
<text text-anchor="start" x="428.5873" y="-718.7" font-family="Times,serif" font-size="14.00" fill="#000000"> &#160;&#160;&#160;addBlackList(_evilUser: address)</text>
<text text-anchor="start" x="428.5873" y="-701.9" font-family="Times,serif" font-size="14.00" fill="#000000"> &#160;&#160;&#160;removeBlackList(_clearedUser: address)</text>
<text text-anchor="start" x="428.5873" y="-685.1" font-family="Times,serif" font-size="14.00" fill="#000000"> &#160;&#160;&#160;destroyBlackFunds(_blackListedUser: address)</text>
</g>
<!-- 8&#45;&gt;2 -->
<g id="edge8" class="edge">
<title>8&#45;&gt;2</title>
<path fill="none" stroke="#000000" d="M712.0586,-919.5763C716.9037,-931.6575 721.3817,-943.8663 725.1694,-955.8 745.7609,-1020.6765 759.5337,-1096.0321 768.1472,-1155.0275"/>
<polygon fill="none" stroke="#000000" points="757.7942,-1156.8142 772.301,-1185.095 778.5966,-1153.9403 757.7942,-1156.8142"/>
</g>
<!-- 8&#45;&gt;5 -->
<g id="edge9" class="edge">
<title>8&#45;&gt;5</title>
<path fill="none" stroke="#000000" d="M615.603,-919.5598C614.8195,-922.1621 614.0358,-924.7653 613.2533,-927.3646"/>
<polygon fill="none" stroke="#000000" points="603.187,-924.3778 604.5929,-956.1312 623.2955,-930.4317 603.187,-924.3778"/>
</g>
<!-- 9 -->
<g id="node9" class="node">
<title>9</title>
<polygon fill="#f2f2f2" stroke="#000000" points="71.9575,-473.1 71.9575,-614.7 656.3813,-614.7 656.3813,-473.1 71.9575,-473.1"/>
<text text-anchor="middle" x="364.1694" y="-598.1" font-family="Times,serif" font-size="14.00" fill="#000000">&lt;&lt;Abstract&gt;&gt;</text>
<text text-anchor="middle" x="364.1694" y="-581.3" font-family="Times,serif" font-size="14.00" fill="#000000">UpgradedStandardToken</text>
<polyline fill="none" stroke="#000000" points="71.9575,-573.1 656.3813,-573.1 "/>
<text text-anchor="middle" x="364.1694" y="-556.5" font-family="Times,serif" font-size="14.00" fill="#000000"> </text>
<polyline fill="none" stroke="#000000" points="71.9575,-548.3 656.3813,-548.3 "/>
<text text-anchor="start" x="79.9575" y="-531.7" font-family="Times,serif" font-size="14.00" fill="#000000">Public:</text>
<text text-anchor="start" x="79.9575" y="-514.9" font-family="Times,serif" font-size="14.00" fill="#000000"> &#160;&#160;&#160;&lt;&lt;abstract&gt;&gt; transferByLegacy(from: address, to: address, value: uint)</text>
<text text-anchor="start" x="79.9575" y="-498.1" font-family="Times,serif" font-size="14.00" fill="#000000"> &#160;&#160;&#160;&lt;&lt;abstract&gt;&gt; transferFromByLegacy(sender: address, from: address, spender: address, value: uint)</text>
<text text-anchor="start" x="79.9575" y="-481.3" font-family="Times,serif" font-size="14.00" fill="#000000"> &#160;&#160;&#160;&lt;&lt;abstract&gt;&gt; approveByLegacy(from: address, spender: address, value: uint)</text>
</g>
<!-- 9&#45;&gt;6 -->
<g id="edge10" class="edge">
<title>9&#45;&gt;6</title>
<path fill="none" stroke="#000000" d="M319.6005,-614.7089C304.3436,-638.9483 286.9321,-666.6108 270.3393,-692.9726"/>
<polygon fill="none" stroke="#000000" points="261.2239,-687.7434 254.1294,-718.726 278.9964,-698.93 261.2239,-687.7434"/>
</g>
<!-- 10 -->
<g id="node10" class="node">
<title>10</title>
<polygon fill="#f2f2f2" stroke="#000000" points="443.2486,-.5 443.2486,-410.9 925.0902,-410.9 925.0902,-.5 443.2486,-.5"/>
<text text-anchor="middle" x="684.1694" y="-394.3" font-family="Times,serif" font-size="14.00" fill="#000000">TetherToken</text>
<polyline fill="none" stroke="#000000" points="443.2486,-386.1 925.0902,-386.1 "/>
<text text-anchor="start" x="451.2486" y="-369.5" font-family="Times,serif" font-size="14.00" fill="#000000">Public:</text>
<text text-anchor="start" x="451.2486" y="-352.7" font-family="Times,serif" font-size="14.00" fill="#000000"> &#160;&#160;name: string</text>
<text text-anchor="start" x="451.2486" y="-335.9" font-family="Times,serif" font-size="14.00" fill="#000000"> &#160;&#160;symbol: string</text>
<text text-anchor="start" x="451.2486" y="-319.1" font-family="Times,serif" font-size="14.00" fill="#000000"> &#160;&#160;decimals: uint</text>
<text text-anchor="start" x="451.2486" y="-302.3" font-family="Times,serif" font-size="14.00" fill="#000000"> &#160;&#160;upgradedAddress: address</text>
<text text-anchor="start" x="451.2486" y="-285.5" font-family="Times,serif" font-size="14.00" fill="#000000"> &#160;&#160;deprecated: bool</text>
<polyline fill="none" stroke="#000000" points="443.2486,-277.3 925.0902,-277.3 "/>
<text text-anchor="start" x="451.2486" y="-260.7" font-family="Times,serif" font-size="14.00" fill="#000000">Public:</text>
<text text-anchor="start" x="451.2486" y="-243.9" font-family="Times,serif" font-size="14.00" fill="#000000"> &#160;&#160;&#160;&lt;&lt;event&gt;&gt; Params(feeBasisPoints: uint, maxFee: uint)</text>
<text text-anchor="start" x="451.2486" y="-227.1" font-family="Times,serif" font-size="14.00" fill="#000000"> &#160;&#160;&#160;&lt;&lt;event&gt;&gt; Issue(amount: uint)</text>
<text text-anchor="start" x="451.2486" y="-210.3" font-family="Times,serif" font-size="14.00" fill="#000000"> &#160;&#160;&#160;&lt;&lt;event&gt;&gt; Redeem(amount: uint)</text>
<text text-anchor="start" x="451.2486" y="-193.5" font-family="Times,serif" font-size="14.00" fill="#000000"> &#160;&#160;&#160;&lt;&lt;event&gt;&gt; Deprecate(newAddress: address)</text>
<text text-anchor="start" x="451.2486" y="-176.7" font-family="Times,serif" font-size="14.00" fill="#000000"> &#160;&#160;&#160;approve(_spender: address, _value: uint)</text>
<text text-anchor="start" x="451.2486" y="-159.9" font-family="Times,serif" font-size="14.00" fill="#000000"> &#160;&#160;&#160;allowance(_owner: address, _spender: address): (remaining: uint)</text>
<text text-anchor="start" x="451.2486" y="-143.1" font-family="Times,serif" font-size="14.00" fill="#000000"> &#160;&#160;&#160;deprecate(_upgradedAddress: address)</text>
<text text-anchor="start" x="451.2486" y="-126.3" font-family="Times,serif" font-size="14.00" fill="#000000"> &#160;&#160;&#160;transfer(_to: address, _value: uint)</text>
<text text-anchor="start" x="451.2486" y="-109.5" font-family="Times,serif" font-size="14.00" fill="#000000"> &#160;&#160;&#160;issue(amount: uint)</text>
<text text-anchor="start" x="451.2486" y="-92.7" font-family="Times,serif" font-size="14.00" fill="#000000"> &#160;&#160;&#160;redeem(amount: uint)</text>
<text text-anchor="start" x="451.2486" y="-75.9" font-family="Times,serif" font-size="14.00" fill="#000000"> &#160;&#160;&#160;setParams(newBasisPoints: uint, newMaxFee: uint)</text>
<text text-anchor="start" x="451.2486" y="-59.1" font-family="Times,serif" font-size="14.00" fill="#000000"> &#160;&#160;&#160;constructor(_initialSupply: uint, _name: string, _symbol: string, _decimals: uint)</text>
<text text-anchor="start" x="451.2486" y="-42.3" font-family="Times,serif" font-size="14.00" fill="#000000"> &#160;&#160;&#160;transferFrom(_from: address, _to: address, _value: uint)</text>
<text text-anchor="start" x="451.2486" y="-25.5" font-family="Times,serif" font-size="14.00" fill="#000000"> &#160;&#160;&#160;balanceOf(who: address): uint</text>
<text text-anchor="start" x="451.2486" y="-8.7" font-family="Times,serif" font-size="14.00" fill="#000000"> &#160;&#160;&#160;totalSupply(): uint</text>
</g>
<!-- 10&#45;&gt;6 -->
<g id="edge12" class="edge">
<title>10&#45;&gt;6</title>
<path fill="none" stroke="#000000" d="M442.87,-269.1723C288.3817,-315.2414 108.6387,-380.911 63.1694,-447.4 14.7489,-518.2045 32.5692,-560.266 63.1694,-640.4 70.5623,-659.7602 81.5467,-678.2475 94.18,-695.3062"/>
<polygon fill="none" stroke="#000000" points="86.2162,-702.1555 113.2875,-718.8108 102.5113,-688.9089 86.2162,-702.1555"/>
</g>
<!-- 10&#45;&gt;7 -->
<g id="edge11" class="edge">
<title>10&#45;&gt;7</title>
<path fill="none" stroke="#000000" d="M803.8752,-411.2051C805.9373,-414.7452 807.9863,-418.2629 810.0185,-421.7517"/>
<polygon fill="none" stroke="#000000" points="801.031,-427.1834 825.204,-447.8213 819.177,-416.6134 801.031,-427.1834"/>
</g>
<!-- 10&#45;&gt;8 -->
<g id="edge13" class="edge">
<title>10&#45;&gt;8</title>
<path fill="none" stroke="#000000" d="M676.8172,-411.1607C673.7926,-483.6359 669.8811,-565.6686 665.1694,-640.4 665.0358,-642.5184 664.8985,-644.6526 664.7577,-646.7996"/>
<polygon fill="none" stroke="#000000" points="654.2829,-646.0737 662.6486,-676.7374 675.231,-647.5495 654.2829,-646.0737"/>
</g>
<!-- 10&#45;&gt;9 -->
<g id="edge14" class="edge">
<title>10&#45;&gt;9</title>
<path fill="none" stroke="#000000" stroke-dasharray="5,2" d="M489.7234,-411.2051C471.678,-430.2768 454.2463,-448.6999 438.4065,-465.4407"/>
<polygon fill="#000000" stroke="#000000" points="435.5749,-463.3409 431.2443,-473.0102 440.6596,-468.1519 435.5749,-463.3409"/>
</g>
</g>
</svg>
