<?xml version="1.0" encoding="UTF-8" standalone="no"?>
<!DOCTYPE svg PUBLIC "-//W3C//DTD SVG 1.1//EN"
 "http://www.w3.org/Graphics/SVG/1.1/DTD/svg11.dtd">
<!-- Generated by graphviz version 2.40.1 (20161225.0304)
 -->
<!-- Title: UmlClassDiagram Pages: 1 -->
<svg width="1172pt" height="1140pt"
 viewBox="0.00 0.00 1172.36 1140.00" xmlns="http://www.w3.org/2000/svg" xmlns:xlink="http://www.w3.org/1999/xlink">
<g id="graph0" class="graph" transform="scale(1 1) rotate(0) translate(4 1136)">
<title>UmlClassDiagram</title>
<polygon fill="#ffffff" stroke="transparent" points="-4,4 -4,-1136 1168.3588,-1136 1168.3588,4 -4,4"/>
<!-- 1 -->
<g id="node1" class="node">
<title>1</title>
<polygon fill="#f2f2f2" stroke="#000000" points="554.6516,-964.7 554.6516,-1123.1 786.484,-1123.1 786.484,-964.7 554.6516,-964.7"/>
<text text-anchor="middle" x="670.5678" y="-1106.5" font-family="Times,serif" font-size="14.00" fill="#000000">&lt;&lt;Library&gt;&gt;</text>
<text text-anchor="middle" x="670.5678" y="-1089.7" font-family="Times,serif" font-size="14.00" fill="#000000">SafeMath</text>
<polyline fill="none" stroke="#000000" points="554.6516,-1081.5 786.484,-1081.5 "/>
<text text-anchor="middle" x="670.5678" y="-1064.9" font-family="Times,serif" font-size="14.00" fill="#000000"> </text>
<polyline fill="none" stroke="#000000" points="554.6516,-1056.7 786.484,-1056.7 "/>
<text text-anchor="start" x="562.6516" y="-1040.1" font-family="Times,serif" font-size="14.00" fill="#000000">Internal:</text>
<text text-anchor="start" x="562.6516" y="-1023.3" font-family="Times,serif" font-size="14.00" fill="#000000"> &#160;&#160;&#160;mul(a: uint256, b: uint256): uint256</text>
<text text-anchor="start" x="562.6516" y="-1006.5" font-family="Times,serif" font-size="14.00" fill="#000000"> &#160;&#160;&#160;div(a: uint256, b: uint256): uint256</text>
<text text-anchor="start" x="562.6516" y="-989.7" font-family="Times,serif" font-size="14.00" fill="#000000"> &#160;&#160;&#160;sub(a: uint256, b: uint256): uint256</text>
<text text-anchor="start" x="562.6516" y="-972.9" font-family="Times,serif" font-size="14.00" fill="#000000"> &#160;&#160;&#160;add(a: uint256, b: uint256): uint256</text>
</g>
<!-- 2 -->
<g id="node2" class="node">
<title>2</title>
<polygon fill="#f2f2f2" stroke="#000000" points="804.0768,-973.1 804.0768,-1114.7 1075.0588,-1114.7 1075.0588,-973.1 804.0768,-973.1"/>
<text text-anchor="middle" x="939.5678" y="-1098.1" font-family="Times,serif" font-size="14.00" fill="#000000">Ownable</text>
<polyline fill="none" stroke="#000000" points="804.0768,-1089.9 1075.0588,-1089.9 "/>
<text text-anchor="start" x="812.0768" y="-1073.3" font-family="Times,serif" font-size="14.00" fill="#000000">Public:</text>
<text text-anchor="start" x="812.0768" y="-1056.5" font-family="Times,serif" font-size="14.00" fill="#000000"> &#160;&#160;owner: address</text>
<polyline fill="none" stroke="#000000" points="804.0768,-1048.3 1075.0588,-1048.3 "/>
<text text-anchor="start" x="812.0768" y="-1031.7" font-family="Times,serif" font-size="14.00" fill="#000000">Public:</text>
<text text-anchor="start" x="812.0768" y="-1014.9" font-family="Times,serif" font-size="14.00" fill="#000000"> &#160;&#160;&#160;&lt;&lt;modifier&gt;&gt; onlyOwner()</text>
<text text-anchor="start" x="812.0768" y="-998.1" font-family="Times,serif" font-size="14.00" fill="#000000"> &#160;&#160;&#160;constructor()</text>
<text text-anchor="start" x="812.0768" y="-981.3" font-family="Times,serif" font-size="14.00" fill="#000000"> &#160;&#160;&#160;transferOwnership(newOwner: address): ()</text>
</g>
<!-- 3 -->
<g id="node3" class="node">
<title>3</title>
<polygon fill="#f2f2f2" stroke="#000000" points="174.3374,-956.3 174.3374,-1131.5 536.7982,-1131.5 536.7982,-956.3 174.3374,-956.3"/>
<text text-anchor="middle" x="355.5678" y="-1114.9" font-family="Times,serif" font-size="14.00" fill="#000000">&lt;&lt;Abstract&gt;&gt;</text>
<text text-anchor="middle" x="355.5678" y="-1098.1" font-family="Times,serif" font-size="14.00" fill="#000000">ERC20Basic</text>
<polyline fill="none" stroke="#000000" points="174.3374,-1089.9 536.7982,-1089.9 "/>
<text text-anchor="start" x="182.3374" y="-1073.3" font-family="Times,serif" font-size="14.00" fill="#000000">Public:</text>
<text text-anchor="start" x="182.3374" y="-1056.5" font-family="Times,serif" font-size="14.00" fill="#000000"> &#160;&#160;_totalSupply: uint</text>
<polyline fill="none" stroke="#000000" points="174.3374,-1048.3 536.7982,-1048.3 "/>
<text text-anchor="start" x="182.3374" y="-1031.7" font-family="Times,serif" font-size="14.00" fill="#000000">Public:</text>
<text text-anchor="start" x="182.3374" y="-1014.9" font-family="Times,serif" font-size="14.00" fill="#000000"> &#160;&#160;&#160;&lt;&lt;abstract&gt;&gt; totalSupply(): uint</text>
<text text-anchor="start" x="182.3374" y="-998.1" font-family="Times,serif" font-size="14.00" fill="#000000"> &#160;&#160;&#160;&lt;&lt;abstract&gt;&gt; balanceOf(who: address): uint</text>
<text text-anchor="start" x="182.3374" y="-981.3" font-family="Times,serif" font-size="14.00" fill="#000000"> &#160;&#160;&#160;&lt;&lt;abstract&gt;&gt; transfer(to: address, value: uint): ()</text>
<text text-anchor="start" x="182.3374" y="-964.5" font-family="Times,serif" font-size="14.00" fill="#000000"> &#160;&#160;&#160;&lt;&lt;event&gt;&gt; Transfer(from: address, to: address, value: uint)</text>
</g>
<!-- 4 -->
<g id="node4" class="node">
<title>4</title>
<polygon fill="#f2f2f2" stroke="#000000" points="146.5404,-744.1 146.5404,-902.5 564.5952,-902.5 564.5952,-744.1 146.5404,-744.1"/>
<text text-anchor="middle" x="355.5678" y="-885.9" font-family="Times,serif" font-size="14.00" fill="#000000">&lt;&lt;Abstract&gt;&gt;</text>
<text text-anchor="middle" x="355.5678" y="-869.1" font-family="Times,serif" font-size="14.00" fill="#000000">ERC20</text>
<polyline fill="none" stroke="#000000" points="146.5404,-860.9 564.5952,-860.9 "/>
<text text-anchor="middle" x="355.5678" y="-844.3" font-family="Times,serif" font-size="14.00" fill="#000000"> </text>
<polyline fill="none" stroke="#000000" points="146.5404,-836.1 564.5952,-836.1 "/>
<text text-anchor="start" x="154.5404" y="-819.5" font-family="Times,serif" font-size="14.00" fill="#000000">Public:</text>
<text text-anchor="start" x="154.5404" y="-802.7" font-family="Times,serif" font-size="14.00" fill="#000000"> &#160;&#160;&#160;&lt;&lt;abstract&gt;&gt; allowance(owner: address, spender: address): uint</text>
<text text-anchor="start" x="154.5404" y="-785.9" font-family="Times,serif" font-size="14.00" fill="#000000"> &#160;&#160;&#160;&lt;&lt;abstract&gt;&gt; transferFrom(from: address, to: address, value: uint): ()</text>
<text text-anchor="start" x="154.5404" y="-769.1" font-family="Times,serif" font-size="14.00" fill="#000000"> &#160;&#160;&#160;&lt;&lt;abstract&gt;&gt; approve(spender: address, value: uint): ()</text>
<text text-anchor="start" x="154.5404" y="-752.3" font-family="Times,serif" font-size="14.00" fill="#000000"> &#160;&#160;&#160;&lt;&lt;event&gt;&gt; Approval(owner: address, spender: address, value: uint)</text>
</g>
<!-- 4&#45;&gt;3 -->
<g id="edge1" class="edge">
<title>4&#45;&gt;3</title>
<path fill="none" stroke="#000000" d="M355.5678,-902.63C355.5678,-910.1958 355.5678,-917.9731 355.5678,-925.8031"/>
<polygon fill="none" stroke="#000000" points="345.0679,-925.928 355.5678,-955.928 366.0679,-925.9281 345.0679,-925.928"/>
</g>
<!-- 5 -->
<g id="node5" class="node">
<title>5</title>
<polygon fill="#f2f2f2" stroke="#000000" points="603.1571,-735.7 603.1571,-910.9 879.9785,-910.9 879.9785,-735.7 603.1571,-735.7"/>
<text text-anchor="middle" x="741.5678" y="-894.3" font-family="Times,serif" font-size="14.00" fill="#000000">BasicToken</text>
<polyline fill="none" stroke="#000000" points="603.1571,-886.1 879.9785,-886.1 "/>
<text text-anchor="start" x="611.1571" y="-869.5" font-family="Times,serif" font-size="14.00" fill="#000000">Public:</text>
<text text-anchor="start" x="611.1571" y="-852.7" font-family="Times,serif" font-size="14.00" fill="#000000"> &#160;&#160;balances: mapping(address=&gt;uint)</text>
<text text-anchor="start" x="611.1571" y="-835.9" font-family="Times,serif" font-size="14.00" fill="#000000"> &#160;&#160;basisPointsRate: uint</text>
<text text-anchor="start" x="611.1571" y="-819.1" font-family="Times,serif" font-size="14.00" fill="#000000"> &#160;&#160;maximumFee: uint</text>
<polyline fill="none" stroke="#000000" points="603.1571,-810.9 879.9785,-810.9 "/>
<text text-anchor="start" x="611.1571" y="-794.3" font-family="Times,serif" font-size="14.00" fill="#000000">Public:</text>
<text text-anchor="start" x="611.1571" y="-777.5" font-family="Times,serif" font-size="14.00" fill="#000000"> &#160;&#160;&#160;&lt;&lt;modifier&gt;&gt; onlyPayloadSize(size: uint)</text>
<text text-anchor="start" x="611.1571" y="-760.7" font-family="Times,serif" font-size="14.00" fill="#000000"> &#160;&#160;&#160;transfer(_to: address, _value: uint): ()</text>
<text text-anchor="start" x="611.1571" y="-743.9" font-family="Times,serif" font-size="14.00" fill="#000000"> &#160;&#160;&#160;balanceOf(_owner: address): (balance: uint)</text>
</g>
<!-- 5&#45;&gt;1 -->
<g id="edge4" class="edge">
<title>5&#45;&gt;1</title>
<path fill="none" stroke="#000000" stroke-dasharray="5,2" d="M713.3027,-911.1208C708.6839,-925.4716 703.8945,-940.3525 699.2654,-954.7353"/>
<polygon fill="#000000" stroke="#000000" points="695.8224,-954.009 696.0903,-964.6004 702.4858,-956.1536 695.8224,-954.009"/>
</g>
<!-- 5&#45;&gt;2 -->
<g id="edge2" class="edge">
<title>5&#45;&gt;2</title>
<path fill="none" stroke="#000000" d="M820.3916,-911.1208C832.0614,-924.1227 844.1218,-937.5597 855.8865,-950.6672"/>
<polygon fill="none" stroke="#000000" points="848.08,-957.6893 875.9329,-973.0017 863.7082,-943.6622 848.08,-957.6893"/>
</g>
<!-- 5&#45;&gt;3 -->
<g id="edge3" class="edge">
<title>5&#45;&gt;3</title>
<path fill="none" stroke="#000000" d="M602.7028,-903.1206C592.8454,-908.7695 583.0575,-914.3735 573.5678,-919.8 561.3342,-926.7956 548.7102,-934.0055 535.9898,-941.2637"/>
<polygon fill="none" stroke="#000000" points="530.6975,-932.1944 509.8388,-956.1771 541.1006,-950.4366 530.6975,-932.1944"/>
</g>
<!-- 6 -->
<g id="node6" class="node">
<title>6</title>
<polygon fill="#f2f2f2" stroke="#000000" points="157.0838,-489.9 157.0838,-648.3 554.0518,-648.3 554.0518,-489.9 157.0838,-489.9"/>
<text text-anchor="middle" x="355.5678" y="-631.7" font-family="Times,serif" font-size="14.00" fill="#000000">StandardToken</text>
<polyline fill="none" stroke="#000000" points="157.0838,-623.5 554.0518,-623.5 "/>
<text text-anchor="start" x="165.0838" y="-606.9" font-family="Times,serif" font-size="14.00" fill="#000000">Public:</text>
<text text-anchor="start" x="165.0838" y="-590.1" font-family="Times,serif" font-size="14.00" fill="#000000"> &#160;&#160;allowed: mapping(address=&gt;mapping(address=&gt;uint))</text>
<text text-anchor="start" x="165.0838" y="-573.3" font-family="Times,serif" font-size="14.00" fill="#000000"> &#160;&#160;MAX_UINT: uint</text>
<polyline fill="none" stroke="#000000" points="157.0838,-565.1 554.0518,-565.1 "/>
<text text-anchor="start" x="165.0838" y="-548.5" font-family="Times,serif" font-size="14.00" fill="#000000">Public:</text>
<text text-anchor="start" x="165.0838" y="-531.7" font-family="Times,serif" font-size="14.00" fill="#000000"> &#160;&#160;&#160;transferFrom(_from: address, _to: address, _value: uint): ()</text>
<text text-anchor="start" x="165.0838" y="-514.9" font-family="Times,serif" font-size="14.00" fill="#000000"> &#160;&#160;&#160;approve(_spender: address, _value: uint): ()</text>
<text text-anchor="start" x="165.0838" y="-498.1" font-family="Times,serif" font-size="14.00" fill="#000000"> &#160;&#160;&#160;allowance(_owner: address, _spender: address): (remaining: uint)</text>
</g>
<!-- 6&#45;&gt;4 -->
<g id="edge6" class="edge">
<title>6&#45;&gt;4</title>
<path fill="none" stroke="#000000" d="M355.5678,-648.4848C355.5678,-669.1785 355.5678,-691.8464 355.5678,-713.7999"/>
<polygon fill="none" stroke="#000000" points="345.0679,-714.0802 355.5678,-744.0803 366.0679,-714.0803 345.0679,-714.0802"/>
</g>
<!-- 6&#45;&gt;5 -->
<g id="edge5" class="edge">
<title>6&#45;&gt;5</title>
<path fill="none" stroke="#000000" d="M475.8487,-648.3109C509.8412,-670.6966 547.3588,-695.4038 583.2253,-719.0237"/>
<polygon fill="none" stroke="#000000" points="577.5196,-727.8385 608.3496,-735.5692 589.0696,-710.3 577.5196,-727.8385"/>
</g>
<!-- 7 -->
<g id="node7" class="node">
<title>7</title>
<polygon fill="#f2f2f2" stroke="#000000" points="950.7768,-727.3 950.7768,-919.3 1164.3588,-919.3 1164.3588,-727.3 950.7768,-727.3"/>
<text text-anchor="middle" x="1057.5678" y="-902.7" font-family="Times,serif" font-size="14.00" fill="#000000">Pausable</text>
<polyline fill="none" stroke="#000000" points="950.7768,-894.5 1164.3588,-894.5 "/>
<text text-anchor="start" x="958.7768" y="-877.9" font-family="Times,serif" font-size="14.00" fill="#000000">Public:</text>
<text text-anchor="start" x="958.7768" y="-861.1" font-family="Times,serif" font-size="14.00" fill="#000000"> &#160;&#160;paused: bool</text>
<polyline fill="none" stroke="#000000" points="950.7768,-852.9 1164.3588,-852.9 "/>
<text text-anchor="start" x="958.7768" y="-836.3" font-family="Times,serif" font-size="14.00" fill="#000000">Public:</text>
<text text-anchor="start" x="958.7768" y="-819.5" font-family="Times,serif" font-size="14.00" fill="#000000"> &#160;&#160;&#160;&lt;&lt;event&gt;&gt; Pause()</text>
<text text-anchor="start" x="958.7768" y="-802.7" font-family="Times,serif" font-size="14.00" fill="#000000"> &#160;&#160;&#160;&lt;&lt;event&gt;&gt; Unpause()</text>
<text text-anchor="start" x="958.7768" y="-785.9" font-family="Times,serif" font-size="14.00" fill="#000000"> &#160;&#160;&#160;&lt;&lt;modifier&gt;&gt; whenNotPaused()</text>
<text text-anchor="start" x="958.7768" y="-769.1" font-family="Times,serif" font-size="14.00" fill="#000000"> &#160;&#160;&#160;&lt;&lt;modifier&gt;&gt; whenPaused()</text>
<text text-anchor="start" x="958.7768" y="-752.3" font-family="Times,serif" font-size="14.00" fill="#000000"> &#160;&#160;&#160;pause(): ()</text>
<text text-anchor="start" x="958.7768" y="-735.5" font-family="Times,serif" font-size="14.00" fill="#000000"> &#160;&#160;&#160;unpause(): ()</text>
</g>
<!-- 7&#45;&gt;2 -->
<g id="edge7" class="edge">
<title>7&#45;&gt;2</title>
<path fill="none" stroke="#000000" d="M1006.1545,-919.4166C1001.4165,-928.2744 996.6121,-937.2562 991.8662,-946.1285"/>
<polygon fill="none" stroke="#000000" points="982.3925,-941.5781 977.5012,-972.9839 1000.9099,-951.4831 982.3925,-941.5781"/>
</g>
<!-- 8 -->
<g id="node8" class="node">
<title>8</title>
<polygon fill="#f2f2f2" stroke="#000000" points="571.9857,-447.9 571.9857,-690.3 1035.1499,-690.3 1035.1499,-447.9 571.9857,-447.9"/>
<text text-anchor="middle" x="803.5678" y="-673.7" font-family="Times,serif" font-size="14.00" fill="#000000">BlackList</text>
<polyline fill="none" stroke="#000000" points="571.9857,-665.5 1035.1499,-665.5 "/>
<text text-anchor="start" x="579.9857" y="-648.9" font-family="Times,serif" font-size="14.00" fill="#000000">Public:</text>
<text text-anchor="start" x="579.9857" y="-632.1" font-family="Times,serif" font-size="14.00" fill="#000000"> &#160;&#160;isBlackListed: mapping(address=&gt;bool)</text>
<polyline fill="none" stroke="#000000" points="571.9857,-623.9 1035.1499,-623.9 "/>
<text text-anchor="start" x="579.9857" y="-607.3" font-family="Times,serif" font-size="14.00" fill="#000000">External:</text>
<text text-anchor="start" x="579.9857" y="-590.5" font-family="Times,serif" font-size="14.00" fill="#000000"> &#160;&#160;&#160;getBlackListStatus(_maker: address): bool</text>
<text text-anchor="start" x="579.9857" y="-573.7" font-family="Times,serif" font-size="14.00" fill="#000000"> &#160;&#160;&#160;getOwner(): address</text>
<text text-anchor="start" x="579.9857" y="-556.9" font-family="Times,serif" font-size="14.00" fill="#000000">Public:</text>
<text text-anchor="start" x="579.9857" y="-540.1" font-family="Times,serif" font-size="14.00" fill="#000000"> &#160;&#160;&#160;&lt;&lt;event&gt;&gt; DestroyedBlackFunds(_blackListedUser: address, _balance: uint)</text>
<text text-anchor="start" x="579.9857" y="-523.3" font-family="Times,serif" font-size="14.00" fill="#000000"> &#160;&#160;&#160;&lt;&lt;event&gt;&gt; AddedBlackList(_user: address)</text>
<text text-anchor="start" x="579.9857" y="-506.5" font-family="Times,serif" font-size="14.00" fill="#000000"> &#160;&#160;&#160;&lt;&lt;event&gt;&gt; RemovedBlackList(_user: address)</text>
<text text-anchor="start" x="579.9857" y="-489.7" font-family="Times,serif" font-size="14.00" fill="#000000"> &#160;&#160;&#160;addBlackList(_evilUser: address): ()</text>
<text text-anchor="start" x="579.9857" y="-472.9" font-family="Times,serif" font-size="14.00" fill="#000000"> &#160;&#160;&#160;removeBlackList(_clearedUser: address): ()</text>
<text text-anchor="start" x="579.9857" y="-456.1" font-family="Times,serif" font-size="14.00" fill="#000000"> &#160;&#160;&#160;destroyBlackFunds(_blackListedUser: address): ()</text>
</g>
<!-- 8&#45;&gt;2 -->
<g id="edge8" class="edge">
<title>8&#45;&gt;2</title>
<path fill="none" stroke="#000000" d="M874.0606,-690.4065C879.5094,-702.4702 884.4729,-714.7235 888.5678,-726.8 912.3643,-796.98 925.1982,-879.7543 932.0384,-943.1325"/>
<polygon fill="none" stroke="#000000" points="921.5893,-944.1655 934.9764,-972.9932 942.4884,-942.1092 921.5893,-944.1655"/>
</g>
<!-- 8&#45;&gt;5 -->
<g id="edge9" class="edge">
<title>8&#45;&gt;5</title>
<path fill="none" stroke="#000000" d="M773.9297,-690.6161C772.6562,-695.8377 771.3795,-701.0719 770.1084,-706.2834"/>
<polygon fill="none" stroke="#000000" points="759.8571,-704.0023 762.9493,-735.636 780.259,-708.9784 759.8571,-704.0023"/>
</g>
<!-- 9 -->
<g id="node9" class="node">
<title>9</title>
<polygon fill="#f2f2f2" stroke="#000000" points="0,-134.9 0,-276.5 601.1356,-276.5 601.1356,-134.9 0,-134.9"/>
<text text-anchor="middle" x="300.5678" y="-259.9" font-family="Times,serif" font-size="14.00" fill="#000000">&lt;&lt;Abstract&gt;&gt;</text>
<text text-anchor="middle" x="300.5678" y="-243.1" font-family="Times,serif" font-size="14.00" fill="#000000">UpgradedStandardToken</text>
<polyline fill="none" stroke="#000000" points="0,-234.9 601.1356,-234.9 "/>
<text text-anchor="middle" x="300.5678" y="-218.3" font-family="Times,serif" font-size="14.00" fill="#000000"> </text>
<polyline fill="none" stroke="#000000" points="0,-210.1 601.1356,-210.1 "/>
<text text-anchor="start" x="8" y="-193.5" font-family="Times,serif" font-size="14.00" fill="#000000">Public:</text>
<text text-anchor="start" x="8" y="-176.7" font-family="Times,serif" font-size="14.00" fill="#000000"> &#160;&#160;&#160;&lt;&lt;abstract&gt;&gt; transferByLegacy(from: address, to: address, value: uint): ()</text>
<text text-anchor="start" x="8" y="-159.9" font-family="Times,serif" font-size="14.00" fill="#000000"> &#160;&#160;&#160;&lt;&lt;abstract&gt;&gt; transferFromByLegacy(sender: address, from: address, spender: address, value: uint): ()</text>
<text text-anchor="start" x="8" y="-143.1" font-family="Times,serif" font-size="14.00" fill="#000000"> &#160;&#160;&#160;&lt;&lt;abstract&gt;&gt; approveByLegacy(from: address, spender: address, value: uint): ()</text>
</g>
<!-- 9&#45;&gt;6 -->
<g id="edge10" class="edge">
<title>9&#45;&gt;6</title>
<path fill="none" stroke="#000000" d="M311.3029,-276.6299C319.1961,-328.7825 330.0691,-400.6232 339.0634,-460.0511"/>
<polygon fill="none" stroke="#000000" points="328.6987,-461.7356 343.5699,-489.8265 349.4623,-458.5931 328.6987,-461.7356"/>
</g>
<!-- 10 -->
<g id="node10" class="node">
<title>10</title>
<polygon fill="#f2f2f2" stroke="#000000" points="618.647,-.5 618.647,-410.9 1100.4886,-410.9 1100.4886,-.5 618.647,-.5"/>
<text text-anchor="middle" x="859.5678" y="-394.3" font-family="Times,serif" font-size="14.00" fill="#000000">TetherToken</text>
<polyline fill="none" stroke="#000000" points="618.647,-386.1 1100.4886,-386.1 "/>
<text text-anchor="start" x="626.647" y="-369.5" font-family="Times,serif" font-size="14.00" fill="#000000">Public:</text>
<text text-anchor="start" x="626.647" y="-352.7" font-family="Times,serif" font-size="14.00" fill="#000000"> &#160;&#160;name: string</text>
<text text-anchor="start" x="626.647" y="-335.9" font-family="Times,serif" font-size="14.00" fill="#000000"> &#160;&#160;symbol: string</text>
<text text-anchor="start" x="626.647" y="-319.1" font-family="Times,serif" font-size="14.00" fill="#000000"> &#160;&#160;decimals: uint</text>
<text text-anchor="start" x="626.647" y="-302.3" font-family="Times,serif" font-size="14.00" fill="#000000"> &#160;&#160;upgradedAddress: address</text>
<text text-anchor="start" x="626.647" y="-285.5" font-family="Times,serif" font-size="14.00" fill="#000000"> &#160;&#160;deprecated: bool</text>
<polyline fill="none" stroke="#000000" points="618.647,-277.3 1100.4886,-277.3 "/>
<text text-anchor="start" x="626.647" y="-260.7" font-family="Times,serif" font-size="14.00" fill="#000000">Public:</text>
<text text-anchor="start" x="626.647" y="-243.9" font-family="Times,serif" font-size="14.00" fill="#000000"> &#160;&#160;&#160;&lt;&lt;event&gt;&gt; Params(feeBasisPoints: uint, maxFee: uint)</text>
<text text-anchor="start" x="626.647" y="-227.1" font-family="Times,serif" font-size="14.00" fill="#000000"> &#160;&#160;&#160;&lt;&lt;event&gt;&gt; Issue(amount: uint)</text>
<text text-anchor="start" x="626.647" y="-210.3" font-family="Times,serif" font-size="14.00" fill="#000000"> &#160;&#160;&#160;&lt;&lt;event&gt;&gt; Redeem(amount: uint)</text>
<text text-anchor="start" x="626.647" y="-193.5" font-family="Times,serif" font-size="14.00" fill="#000000"> &#160;&#160;&#160;&lt;&lt;event&gt;&gt; Deprecate(newAddress: address)</text>
<text text-anchor="start" x="626.647" y="-176.7" font-family="Times,serif" font-size="14.00" fill="#000000"> &#160;&#160;&#160;approve(_spender: address, _value: uint): ()</text>
<text text-anchor="start" x="626.647" y="-159.9" font-family="Times,serif" font-size="14.00" fill="#000000"> &#160;&#160;&#160;allowance(_owner: address, _spender: address): (remaining: uint)</text>
<text text-anchor="start" x="626.647" y="-143.1" font-family="Times,serif" font-size="14.00" fill="#000000"> &#160;&#160;&#160;deprecate(_upgradedAddress: address): ()</text>
<text text-anchor="start" x="626.647" y="-126.3" font-family="Times,serif" font-size="14.00" fill="#000000"> &#160;&#160;&#160;transfer(_to: address, _value: uint): ()</text>
<text text-anchor="start" x="626.647" y="-109.5" font-family="Times,serif" font-size="14.00" fill="#000000"> &#160;&#160;&#160;issue(amount: uint): ()</text>
<text text-anchor="start" x="626.647" y="-92.7" font-family="Times,serif" font-size="14.00" fill="#000000"> &#160;&#160;&#160;redeem(amount: uint): ()</text>
<text text-anchor="start" x="626.647" y="-75.9" font-family="Times,serif" font-size="14.00" fill="#000000"> &#160;&#160;&#160;setParams(newBasisPoints: uint, newMaxFee: uint): ()</text>
<text text-anchor="start" x="626.647" y="-59.1" font-family="Times,serif" font-size="14.00" fill="#000000"> &#160;&#160;&#160;constructor(_initialSupply: uint, _name: string, _symbol: string, _decimals: uint)</text>
<text text-anchor="start" x="626.647" y="-42.3" font-family="Times,serif" font-size="14.00" fill="#000000"> &#160;&#160;&#160;transferFrom(_from: address, _to: address, _value: uint): ()</text>
<text text-anchor="start" x="626.647" y="-25.5" font-family="Times,serif" font-size="14.00" fill="#000000"> &#160;&#160;&#160;balanceOf(who: address): uint</text>
<text text-anchor="start" x="626.647" y="-8.7" font-family="Times,serif" font-size="14.00" fill="#000000"> &#160;&#160;&#160;totalSupply(): uint</text>
</g>
<!-- 10&#45;&gt;6 -->
<g id="edge12" class="edge">
<title>10&#45;&gt;6</title>
<path fill="none" stroke="#000000" d="M618.4499,-405.7067C615.8158,-407.6226 613.1878,-409.521 610.5678,-411.4 581.0096,-432.5984 548.5881,-453.9741 517.0689,-473.8509"/>
<polygon fill="none" stroke="#000000" points="511.385,-465.021 491.4747,-489.7966 522.4896,-482.8448 511.385,-465.021"/>
</g>
<!-- 10&#45;&gt;7 -->
<g id="edge11" class="edge">
<title>10&#45;&gt;7</title>
<path fill="none" stroke="#000000" d="M1028.9191,-410.9184C1034.8714,-422.8963 1040.1578,-435.0873 1044.5678,-447.4 1073.0969,-527.0534 1076.0772,-622.3707 1072.0626,-697.0911"/>
<polygon fill="none" stroke="#000000" points="1061.573,-696.583 1070.0108,-727.2269 1082.5245,-698.0095 1061.573,-696.583"/>
</g>
<!-- 10&#45;&gt;8 -->
<g id="edge13" class="edge">
<title>10&#45;&gt;8</title>
<path fill="none" stroke="#000000" d="M827.9266,-411.0288C827.5838,-413.2535 827.2417,-415.4735 826.9005,-417.6873"/>
<polygon fill="none" stroke="#000000" points="816.4995,-416.2414 822.3078,-447.4906 837.2545,-419.4398 816.4995,-416.2414"/>
</g>
</g>
</svg>
